<mxfile host="app.diagrams.net" agent="Mozilla/5.0 (Windows NT 10.0; Win64; x64) AppleWebKit/537.36 (KHTML, like Gecko) Chrome/141.0.0.0 Safari/537.36" version="28.2.7">
  <diagram name="Page-1" id="OETDO_wT-vaZLfYeogFx">
    <mxGraphModel dx="1245" dy="751" grid="1" gridSize="10" guides="1" tooltips="1" connect="1" arrows="1" fold="1" page="1" pageScale="1" pageWidth="850" pageHeight="1100" math="0" shadow="0">
      <root>
        <mxCell id="0" />
        <mxCell id="1" parent="0" />
        <mxCell id="u6hc1uQPACvz0U9A136R-88" value="" style="html=1;verticalLabelPosition=bottom;align=center;labelBackgroundColor=#ffffff;verticalAlign=top;strokeWidth=2;strokeColor=#b46504;shadow=0;dashed=0;shape=mxgraph.ios7.icons.cloud;fillColor=#fad7ac;" vertex="1" parent="1">
          <mxGeometry x="1420" y="138.5" width="117.19" height="70" as="geometry" />
        </mxCell>
        <mxCell id="u6hc1uQPACvz0U9A136R-45" value="" style="html=1;verticalLabelPosition=bottom;align=center;labelBackgroundColor=#ffffff;verticalAlign=top;strokeWidth=2;strokeColor=#b46504;shadow=0;dashed=0;shape=mxgraph.ios7.icons.cloud;fillColor=#fad7ac;" vertex="1" parent="1">
          <mxGeometry x="486.4" y="750" width="117.19" height="70" as="geometry" />
        </mxCell>
        <mxCell id="u6hc1uQPACvz0U9A136R-9" style="edgeStyle=orthogonalEdgeStyle;rounded=0;orthogonalLoop=1;jettySize=auto;html=1;" edge="1" parent="1" source="0sxEF5XDNKmsbEsCBIEf-1" target="u6hc1uQPACvz0U9A136R-2">
          <mxGeometry relative="1" as="geometry" />
        </mxCell>
        <mxCell id="0sxEF5XDNKmsbEsCBIEf-1" value="" style="image;aspect=fixed;perimeter=ellipsePerimeter;html=1;align=center;shadow=0;dashed=0;spacingTop=3;image=img/lib/active_directory/users.svg;" parent="1" vertex="1">
          <mxGeometry x="180" y="282.5" width="49.5" height="75" as="geometry" />
        </mxCell>
        <mxCell id="xVZmTRgNB_iH6yjcrapg-1" value="Dev / Test teams" style="text;html=1;align=center;verticalAlign=middle;whiteSpace=wrap;rounded=0;" parent="1" vertex="1">
          <mxGeometry x="160" y="230" width="85.25" height="30" as="geometry" />
        </mxCell>
        <mxCell id="xVZmTRgNB_iH6yjcrapg-2" value="Application / Components under development" style="text;html=1;align=center;verticalAlign=middle;whiteSpace=wrap;rounded=0;" parent="1" vertex="1">
          <mxGeometry x="280" y="215" width="131.42" height="60" as="geometry" />
        </mxCell>
        <mxCell id="xVZmTRgNB_iH6yjcrapg-3" value="Cloud integrations" style="text;html=1;align=center;verticalAlign=middle;whiteSpace=wrap;rounded=0;" parent="1" vertex="1">
          <mxGeometry x="610" y="157.5" width="131.42" height="60" as="geometry" />
        </mxCell>
        <mxCell id="xVZmTRgNB_iH6yjcrapg-4" value="Database dependencies" style="text;html=1;align=center;verticalAlign=middle;whiteSpace=wrap;rounded=0;" parent="1" vertex="1">
          <mxGeometry x="610" y="288" width="131.42" height="60" as="geometry" />
        </mxCell>
        <mxCell id="xVZmTRgNB_iH6yjcrapg-5" value="External services" style="text;html=1;align=center;verticalAlign=middle;whiteSpace=wrap;rounded=0;" parent="1" vertex="1">
          <mxGeometry x="610" y="417.5" width="131.42" height="60" as="geometry" />
        </mxCell>
        <mxCell id="u6hc1uQPACvz0U9A136R-1" value="" style="html=1;verticalLabelPosition=bottom;align=center;labelBackgroundColor=#ffffff;verticalAlign=top;strokeWidth=2;strokeColor=#b46504;shadow=0;dashed=0;shape=mxgraph.ios7.icons.cloud;fillColor=#fad7ac;" vertex="1" parent="1">
          <mxGeometry x="486.4" y="150" width="117.19" height="70" as="geometry" />
        </mxCell>
        <mxCell id="u6hc1uQPACvz0U9A136R-2" value="" style="aspect=fixed;sketch=0;html=1;dashed=0;whitespace=wrap;verticalLabelPosition=bottom;verticalAlign=top;fillColor=#2875E2;strokeColor=#ffffff;points=[[0.005,0.63,0],[0.1,0.2,0],[0.9,0.2,0],[0.5,0,0],[0.995,0.63,0],[0.72,0.99,0],[0.5,1,0],[0.28,0.99,0]];shape=mxgraph.kubernetes.icon2;prIcon=api" vertex="1" parent="1">
          <mxGeometry x="290" y="277.26" width="89.05" height="85.48" as="geometry" />
        </mxCell>
        <mxCell id="u6hc1uQPACvz0U9A136R-31" value="" style="shape=image;verticalLabelPosition=bottom;verticalAlign=top;imageAspect=0;aspect=fixed;image=data:image/png,iVBORw0KGgoAAAANSUhEUgAAAV8AAAFfCAYAAADptc+BAAAACXBIWXMAAAsSAAALEgHS3X78AAARs0lEQVR4nO3d7XHcVpaA4aMJgOUQJgKVN4NRBuMIlg5ANbMRbAjeKQYgZTC7EYwzGBcjcAgqJaD9IUKmJLLZAC5wz7n3eX6qbDRwP15CVDc6AgAAAAAAAAAAAAAAAACAK93c3f94c3f/197nAVv9qfcJwFo3d/c/RsS/IuKfN3f3t51PBzZ51fsEYI1H4f3h0R///PHt6/d9zgi2EV/KeCa8CwGmFPGlhBfCuxBgyhBf0rsyvAsBpgTxJbWV4V0IMOmJL2ltDO9CgElNfElpZ3gXAkxa4ks6jcK7EGBSEl9SaRzehQCTjviSxkHhXQgwqYgvKRwc3oUAk4b40t1J4V0IMCmIL12dHN6FANOd+NJNp/AuBJiuxJcuOod3IcB0I76cLkl4FwJMF+LLqZKFdyHAnE58OU3S8C4EmFP5GiFOcVB4PzQ81jtfScSZxJfDHfWR4Yh4EwJMUX7twKGOflaDZ0FQlfhymLPCKMBUJL4c4uwgCjDViC/N9QqhAFOJ+NJU7wD2fn24lvjSTJbwZTkPuER8aSJb8LKdD3xLfNkta+iynhdEiC87ZQ9c9vNjXuLLZlXCVuU8mYv4skm1oFU7X8YnvqxWNWRVz5sxiS+rVA9Y9fNnHOLL1UYJ1yjXQW3iy1VGC9Zo10M94suLRg3VqNdFDeLLRaMHavTrIy/x5VmzhGmW6yQX8eVJswVptuulP/HlO7OGaNbrpg/x5SuzB2j26+c84ssXwvOZceAM4ktECM63jAdHE1+E5hnGhSOJ7+QE5jLjw1HEd2LCch3jxBHEd1KCso7xojXxnZCQbGPcaEl8JyMg+xg/WhHfiQhHG8aRFsR3EoLRlvFkL/GdgFAcw7iyh/gOTiCOZXzZSnwHJgznMM5sIb6DEoRzGW/WEt8BCUEfxp01xHcwAtCX8eda4jsQGz8H88A1xHcQNnwu5oOXiO8AbPSczAuXiG9xNnhu5ofniG9hNnYN5omniG9RNnQt5otviW9BNnJN5o3HxLcYG7g288dCfAuxccdgHokQ3zJs2LGYT8S3ABt1TOZ1buKbnA06NvM7L/FNzMacg3mek/gmZUPOxXzPR3wTshHnZN7nIr7J2IBzM//zEN9EbDwirINZiG8SNhyPWQ/jE98EbDSeYl2MTXw7s8G4xPoYl/h2ZGNxDetkTOLbiQ3FGtbLeMS3AxuJLaybsYjvyWwg9rB+xiG+J7JxaME6GoP4nsSGoSXrqT7xPYGNwhGsq9rE92A2CEeyvuoS3wPZGJzBOqtJfA9iQ3Am660e8T2AjUAP1l0t4tuYDUBP1l8d4tuQhU8G1mEN4tuIBU8m1mN+4tuAhU5G1mVu4ruTBU5m1mde4ruDhU0F1mlO4ruRBU0l1ms+f+p9AhXNvpBv7u5/vLm7/6X3efRWaRw+vn39W0S8iYgPDQ/77ubu/rbh8abizncl4f3q+t9/fPv6586n1EXVcZh9/WYivivMvnCfuf4y4Wml+jjMvo6zEN8rzb5gX7j+MuHZa5RxmH09ZyC+V5h9oV55/WXCs9Vo4zD7uu5NfF8w+wJdef1lwrPWqOMw+/ruSXwvmH1hbrz+MuG51ujjMPs670V8nzH7gtx5/WXC85JZxmH29d6D+D5h9oXY6PrLhOc5s43D7Ov+bD5k8Q0LMCIifon91397c3f/rsXJ9NBwHdw+HCs9H8Q4l/g+Irxf/BQRvzU4TskAN14HPz9ErQQBPo9fOzwQ3q/d3N3/EJ/Ho8Vd26x/9a48//bDwcQ3LLTnzBZg4f2afXGs6eNrgV02S4CF92n2x3Gmjq+FdZ3RAyy8l9knx5g2vhbUOqMGWHivY7+0N2V8LaRtRguw8K5j37Q1XXwtoH1GCbDwbmP/tDNVfC2cNqoHWHj3sY/amCa+FkxbVQMsvG3YT/tNEV8L5RjVAiy8bdlX+wwfXwvkWFUCLLzHsL+2Gzq+FsY5sgdYeI9ln20zbHwtiHNlDbDwnsN+W2/Ip5pZCOf7+Pb1h/j8NKw0T0MbLbyfPn1K+2hKT0Nbb7j4zh7em7v7H27u7v/d41GOmQI8YHjfRcS/P336dNvzPC4R4HWG+rWD8H73V/8uH2Lo/SuIQcN7++iPfn716tX7Pmfzstn34bWGie/sE34heFMFeILwLgS4uCHiO/tEXxG6KQI8UXgXAlxY+fjOPsErAjd0gCcM70KAiyod39kndkPYhgzwxOFdCHBBZeM7+4TuCNpQARbeLwS4mJLxnX0iG4RsiABHxD9CeB8T4ELKxXf2CWwYsBEC3Er3+W8Q3oUAF1HqQxYmrqkmnyJbq/EHMVroPv8NwxsR8c4HMWooc+crvH/o/SGGFpLcAXef/8bhfcwdcHIl4muivifAu3Wf/wPDuxDgxNLHd/YJukSAN+s+/yeEdyHASaWO78wTcy0BXq37/J8Y3oUAJ5Q2vrNOyBYCfLXu898hvIs3r169+rXD615lxv2e8t0OM07EHpke5bjVCe+C6D7/HcP7PnN4I+Z8F0S6O1/h3c4d8LO6z3/n8J4+j1vNtP9TxXemgT+KAH+n+/wL7zqzdCBNfGcZ8DMI8Bfd5194t5mhByniO8NAn02A+8+/8O4zehe6x3f0Ae5p4gB3n3/hbWPkPnSN78gDm8WEAe4+/8Lb1qid6PZWs1EHNJvB3ob264X/7ENE/NR7/oW3vVHfhtblzld4zzfCHXBExM3d/V8i4j8j4s+P/vj/Hs6p5eZcTXiPNVo3To/vaANYySgBzkh4zzFSP06N70gDV5UAtye85xqlI6fFd5QBG4EAtyO8fYzQk1PiO8JAjUaA9xPevqp35fD4Vh+gkQnwdsKbQ+W+HBrfygMzCwFeT3hzqdqZw+JbdUBmJMDXE96cKvbmkPhWHIjZCfDLhDe3at1pHt9qA8AfBPh5wltDpf40jW+lC+dpAvw94a2lSoeaxbfKBfMyAf6D8NZUoUdN4lvhQllHgIW3uuxd2h3f7BfIdjMHWHjHkLlPu+Kb+cJoY8YAC+9YsnZq8/N8s14QbR3wPOC/NzjOYYR3PFmfB7wpvsI7l8YB/u8GxziE8I4rY4BXx1d459QwwD88PBA9FeEdX7YAr4qv8M6tYYD/sv9s2hHeeWQK8No7339G2/C+F156Et75PAT4p8aHfbf2b3Rr4/tTtP2Jcdv7S+y4XsN3Pvy6/2z2E945PazjXxof9v3Ht69/XfM/rIpvplt2ztUwvB/WLlJopfFbJxeb3kK5+h/cBHg+jRfsPxoco4mHu8/3HV769uGumxNlCm/Ejg9Z+Me3OczwIQu/fhhftvBG+IQbF8wQ3oUAjytjeCM824FnzBTehQCPJ2t4IzzVjCfMGN6FAI8jc3gjPM+Xb8wc3oUA15c9vBG+yYJHhPcPAlxXhfBG+A43Hgjv9wS4nirhjfDtxYTwXiLAdVQKb8RB8Y0Q4CqE92UCnF+18EYcGN8IAc5OeK8nwHlVDG/EwfGNEOCshHc9Ac6nangjTohvhABnI7zbCXAelcMbcVJ8IwQ4C+HdT4D7qx7eiBPjGyHAvQlvOwLczwjhjTg5vhEC3Mso4X24jr9GxJ8f/uhDRPz68KjTUwnw+UYJb0SH+EYI8NkGCu/f4/O3Hz+1bn6NiJ8evmfuNAJ8npHCG9EpvhECfJaBwntN5D5ExJuz74IF+HijhTeiY3wjBPhok4V3IcCDGTG8EZ3jGyHAR5k0vAsBHsSo4Y1IEN8IAW5t8vAuBLi4kcMbkSS+EQLcivB+RYCLGj28EYniGyHAewnvkwS4mBnCG5EsvhECvJXwXiTARcwS3oiE8Y0Q4LWE9yoCnNxM4Y1IGt8IAb6W8K4iwEnNFt6IxPGNEOCXCO8mApzMjOGNSB7fCAF+jvDuIsBJzBreiIg/9T6BlzxskDfxecO08u7m7v624fFOJby7/RAR/3r4wX6ahwC+P/M1H9x++vTptsPrXjRzeCMKxDdCgB8T3mZmCvD7V69enf2aF80e3ogi8Y0Q4APMHN7FDAFO9ysH4f2sTHwjBDgi4uGRiW8iYs/vK0cI728R8V8NjjNygIU3sVLxjRDgiN0BHiW8bz6+ff0/EdHiWkYMsPAml/7dDs/xLohNi3mk8H754fvwg/Ndg2OP8i4I4S2gbHwjBDhi1aIeMryPXuM2BDhCeMsoHd8IAY64anEPHd5Hr3UbcwdYeAspH98IAY64uMinCO+j17yNOQMsvMUMEd8IAY54crFPFd5Hr30bcwVYeAsaJr4RAhzx1aL/bcbwPjqH25gjwMJb1FDxjRDgiM+L/+yvUH/02t3D++hcbmPsAAtvYcPFN0KAe8kU3sXAARbe4oaMb4QAny1jeBcDBlh4BzBsfCME+CyZw7sYKMDCO4ih4xshwEerEN7FAAG+9XSycQwf3wgBPkql8C6qBzgT4d1nivhGCHBrFcO7EOD9hHe/aeIbIcCtVA7vQoC3E942popvhADvNUJ4FwK8nvC2M118IwR4q5HCuxDg6wlvW1PGN0KA1xoxvAsBfpnwtjdtfCME+Fojh3chwM8T3mNMHd8IAX7JDOFdCPD3hPc408c3QoCfM1N4FwL8B+E9lvg+EOCvzRjehQAL7xnE9xEB/mzm8C4aB/g/Pr59/XuDY51CeM9R7qvjj+Rr6ZsqG96IiIcfmC1i8Xu0XU+HEt7zuPN9gjvg3Xe/pcP72M474FLjILznEt9nCPDmAJcKzjU2BrjUOAjv+cT3AgFeHeBSwVljZYBLjYPw9iG+LxDgqwNcKjhbXBngUuMgvP2I7xUE+MUAlwrOHi8EuNQ4CG9f4nslAX42wKWC08IzAS41DsLbn/iuIMDfBbhUcFr6JsClxkF4cxDflQT4S4B/jELBOcJDgP8WhcZBePMQ3w0EmIqENxfx3UiAqUR48xHfHQSYCoQ3J/HdSYDJTHjzEt8GBJiMhDc38W1EgMlEePMT34YEmAyEtwbxbUyA6Ul46xDfAwgwPQhvLeJ7EAHmTMJbj/geSIA5g/DWJL4HE2COJLx1ie8JBJgjCG9t4nsSAaYl4a1PfE8kwLQgvGMQ35MJMHsI7zjEtwMBZgvhHYv4diLArCG84xHfjgSYawjvmMS3MwHmEuEdl/gmIMA8RXjHJr5JCDCPCe/4xDcRASZCeGchvskI8NyEdx7im5AAz0l45yK+SQnwXIR3PuKbmADPQXjnJL7JCfDYhHde4luAAI9JeOcmvkUI8FiEF/EtRIDHILxEiG85Alyb8LIQ34IEuCbh5THxLUqAaxFeviW+hQlwDcLLU8S3OAHOTXh5jvgOQIBzEl4uEd9BCHAuwstLxHcgApyD8HIN8R2MAPclvFxLfAckwH0IL2uI76AE+FzCy1riOzABPofwsoX4Dk6AjyW8bCW+ExDgYwgve4jvJAS4LeFlL/GdiAC3Iby0IL6TEeB9hJdWxHdCAryN8NKS+E5KgNcRXloT34kJ8HWElyOI7+QE+DLh5SjiiwA/Q3g5kvgSEQL8LeHlaOLLFwL8mfByBvHlK7MHWHg5i/jynVkDLLycSXx50mwBFl7OJr48a5YACy89iC8XjR5g4aUX8eVFowZYeOlJfLnKaAEWXnoTX642SoCFlwzEl1WqB1h4yUJ8Wa1qgIWXTMSXTaoFWHjJRnzZrEqAhZeMxJddsgdYeMlKfNkta4CFl8zElyayBVh4yU58aSZLgIWXCsSXpnoHWHipQnxprleAhZdKxJdDnB1g4aUa8eUwZwVYeKlIfDnU0QEWXqoSXw53VIAj4n9DeClKfDnFQQH+PSL+3PB4wstpxJfTHBTgVoSXU4kvp0oaYOHldOLL6ZIFWHjpQnzpIkmAhZduxJduOgdYeOlKfOmqU4CFl+7El+5ODrDwkoL4ksJJARZe0hBf0jg4wMJLKuJLKgcFWHhJR3xJp3GAhZeUxJeUGgVYeElLfElrZ4CFl9TEl9Q2Blh4SU98SW9lgIWXEsSXEq4MsPBShvhSxgsBFl5KEV9KeSbAwks54ks53wRYeAHOcnN3/+PN3f0vvc8DAAAAAAAAAAAAAAAAAAAAAMjn/wG3Y9fqkakvlwAAAABJRU5ErkJggg==;" vertex="1" parent="1">
          <mxGeometry x="522.49" y="770" width="45" height="45" as="geometry" />
        </mxCell>
        <mxCell id="u6hc1uQPACvz0U9A136R-32" value="" style="group" vertex="1" connectable="0" parent="1">
          <mxGeometry x="500" y="260" width="90" height="100" as="geometry" />
        </mxCell>
        <mxCell id="u6hc1uQPACvz0U9A136R-6" value="" style="strokeWidth=2;html=1;shape=mxgraph.flowchart.database;whiteSpace=wrap;fillColor=#fad7ac;strokeColor=#b46504;" vertex="1" parent="u6hc1uQPACvz0U9A136R-32">
          <mxGeometry y="55.363321799307954" width="89.99999999999991" height="44.63667820069204" as="geometry" />
        </mxCell>
        <mxCell id="u6hc1uQPACvz0U9A136R-5" value="" style="strokeWidth=2;html=1;shape=mxgraph.flowchart.database;whiteSpace=wrap;fillColor=#fad7ac;strokeColor=#b46504;" vertex="1" parent="u6hc1uQPACvz0U9A136R-32">
          <mxGeometry y="27.68363321799307" width="89.99999999999991" height="44.63667820069204" as="geometry" />
        </mxCell>
        <mxCell id="u6hc1uQPACvz0U9A136R-3" value="" style="strokeWidth=2;html=1;shape=mxgraph.flowchart.database;whiteSpace=wrap;fillColor=#fad7ac;strokeColor=#b46504;" vertex="1" parent="u6hc1uQPACvz0U9A136R-32">
          <mxGeometry width="89.99999999999991" height="44.63667820069204" as="geometry" />
        </mxCell>
        <mxCell id="u6hc1uQPACvz0U9A136R-34" value="" style="sketch=0;html=1;aspect=fixed;strokeColor=#b46504;shadow=0;fillColor=#fad7ac;verticalAlign=top;labelPosition=center;verticalLabelPosition=bottom;shape=mxgraph.gcp2.gear;strokeWidth=2;" vertex="1" parent="1">
          <mxGeometry x="494.99999999999994" y="390" width="100" height="100" as="geometry" />
        </mxCell>
        <mxCell id="u6hc1uQPACvz0U9A136R-35" style="edgeStyle=orthogonalEdgeStyle;rounded=0;orthogonalLoop=1;jettySize=auto;html=1;entryX=-0.008;entryY=0.696;entryDx=0;entryDy=0;entryPerimeter=0;fillColor=#60a917;strokeColor=#2D7600;strokeWidth=3;" edge="1" parent="1" source="u6hc1uQPACvz0U9A136R-2" target="u6hc1uQPACvz0U9A136R-1">
          <mxGeometry relative="1" as="geometry">
            <Array as="points">
              <mxPoint x="440" y="320" />
              <mxPoint x="440" y="199" />
            </Array>
          </mxGeometry>
        </mxCell>
        <mxCell id="u6hc1uQPACvz0U9A136R-36" style="edgeStyle=orthogonalEdgeStyle;rounded=0;orthogonalLoop=1;jettySize=auto;html=1;entryX=0.028;entryY=0.744;entryDx=0;entryDy=0;entryPerimeter=0;fillColor=#60a917;strokeColor=#2D7600;strokeWidth=3;" edge="1" parent="1" source="u6hc1uQPACvz0U9A136R-2" target="u6hc1uQPACvz0U9A136R-5">
          <mxGeometry relative="1" as="geometry" />
        </mxCell>
        <mxCell id="u6hc1uQPACvz0U9A136R-37" style="edgeStyle=orthogonalEdgeStyle;rounded=0;orthogonalLoop=1;jettySize=auto;html=1;entryX=-0.008;entryY=0.635;entryDx=0;entryDy=0;entryPerimeter=0;fillColor=#60a917;strokeColor=#2D7600;strokeWidth=3;" edge="1" parent="1" source="u6hc1uQPACvz0U9A136R-2" target="u6hc1uQPACvz0U9A136R-34">
          <mxGeometry relative="1" as="geometry">
            <Array as="points">
              <mxPoint x="440" y="320" />
              <mxPoint x="440" y="453" />
            </Array>
          </mxGeometry>
        </mxCell>
        <mxCell id="u6hc1uQPACvz0U9A136R-38" style="edgeStyle=orthogonalEdgeStyle;rounded=0;orthogonalLoop=1;jettySize=auto;html=1;" edge="1" parent="1" source="u6hc1uQPACvz0U9A136R-39" target="u6hc1uQPACvz0U9A136R-46">
          <mxGeometry relative="1" as="geometry" />
        </mxCell>
        <mxCell id="u6hc1uQPACvz0U9A136R-39" value="" style="image;aspect=fixed;perimeter=ellipsePerimeter;html=1;align=center;shadow=0;dashed=0;spacingTop=3;image=img/lib/active_directory/users.svg;" vertex="1" parent="1">
          <mxGeometry x="180" y="882.5" width="49.5" height="75" as="geometry" />
        </mxCell>
        <mxCell id="u6hc1uQPACvz0U9A136R-40" value="Dev / Test teams" style="text;html=1;align=center;verticalAlign=middle;whiteSpace=wrap;rounded=0;" vertex="1" parent="1">
          <mxGeometry x="160" y="830" width="85.25" height="30" as="geometry" />
        </mxCell>
        <mxCell id="u6hc1uQPACvz0U9A136R-41" value="Application / Components under development" style="text;html=1;align=center;verticalAlign=middle;whiteSpace=wrap;rounded=0;" vertex="1" parent="1">
          <mxGeometry x="280" y="815" width="131.42" height="60" as="geometry" />
        </mxCell>
        <mxCell id="u6hc1uQPACvz0U9A136R-42" value="Virtual cloud integrations" style="text;html=1;align=center;verticalAlign=middle;whiteSpace=wrap;rounded=0;" vertex="1" parent="1">
          <mxGeometry x="603.59" y="760" width="131.42" height="60" as="geometry" />
        </mxCell>
        <mxCell id="u6hc1uQPACvz0U9A136R-43" value="Virtual database dependencies" style="text;html=1;align=center;verticalAlign=middle;whiteSpace=wrap;rounded=0;" vertex="1" parent="1">
          <mxGeometry x="603.59" y="882.5" width="131.42" height="60" as="geometry" />
        </mxCell>
        <mxCell id="u6hc1uQPACvz0U9A136R-44" value="Virtual external services" style="text;html=1;align=center;verticalAlign=middle;whiteSpace=wrap;rounded=0;" vertex="1" parent="1">
          <mxGeometry x="619.3" y="1017.5" width="100" height="60" as="geometry" />
        </mxCell>
        <mxCell id="u6hc1uQPACvz0U9A136R-46" value="" style="aspect=fixed;sketch=0;html=1;dashed=0;whitespace=wrap;verticalLabelPosition=bottom;verticalAlign=top;fillColor=#2875E2;strokeColor=#ffffff;points=[[0.005,0.63,0],[0.1,0.2,0],[0.9,0.2,0],[0.5,0,0],[0.995,0.63,0],[0.72,0.99,0],[0.5,1,0],[0.28,0.99,0]];shape=mxgraph.kubernetes.icon2;prIcon=api" vertex="1" parent="1">
          <mxGeometry x="290" y="877.26" width="89.05" height="85.48" as="geometry" />
        </mxCell>
        <mxCell id="u6hc1uQPACvz0U9A136R-47" value="" style="group" vertex="1" connectable="0" parent="1">
          <mxGeometry x="500" y="860" width="90" height="100" as="geometry" />
        </mxCell>
        <mxCell id="u6hc1uQPACvz0U9A136R-48" value="" style="strokeWidth=2;html=1;shape=mxgraph.flowchart.database;whiteSpace=wrap;fillColor=#fad7ac;strokeColor=#b46504;" vertex="1" parent="u6hc1uQPACvz0U9A136R-47">
          <mxGeometry y="55.363321799307954" width="89.99999999999991" height="44.63667820069204" as="geometry" />
        </mxCell>
        <mxCell id="u6hc1uQPACvz0U9A136R-49" value="" style="strokeWidth=2;html=1;shape=mxgraph.flowchart.database;whiteSpace=wrap;fillColor=#fad7ac;strokeColor=#b46504;" vertex="1" parent="u6hc1uQPACvz0U9A136R-47">
          <mxGeometry y="27.68363321799307" width="89.99999999999991" height="44.63667820069204" as="geometry" />
        </mxCell>
        <mxCell id="u6hc1uQPACvz0U9A136R-50" value="" style="strokeWidth=2;html=1;shape=mxgraph.flowchart.database;whiteSpace=wrap;fillColor=#fad7ac;strokeColor=#b46504;" vertex="1" parent="u6hc1uQPACvz0U9A136R-47">
          <mxGeometry width="89.99999999999991" height="44.63667820069204" as="geometry" />
        </mxCell>
        <mxCell id="u6hc1uQPACvz0U9A136R-55" value="" style="shape=image;verticalLabelPosition=bottom;verticalAlign=top;imageAspect=0;aspect=fixed;image=data:image/png,iVBORw0KGgoAAAANSUhEUgAAAV8AAAFfCAYAAADptc+BAAAACXBIWXMAAAsSAAALEgHS3X78AAARs0lEQVR4nO3d7XHcVpaA4aMJgOUQJgKVN4NRBuMIlg5ANbMRbAjeKQYgZTC7EYwzGBcjcAgqJaD9IUKmJLLZAC5wz7n3eX6qbDRwP15CVDc6AgAAAAAAAAAAAAAAAACAK93c3f94c3f/197nAVv9qfcJwFo3d/c/RsS/IuKfN3f3t51PBzZ51fsEYI1H4f3h0R///PHt6/d9zgi2EV/KeCa8CwGmFPGlhBfCuxBgyhBf0rsyvAsBpgTxJbWV4V0IMOmJL2ltDO9CgElNfElpZ3gXAkxa4ks6jcK7EGBSEl9SaRzehQCTjviSxkHhXQgwqYgvKRwc3oUAk4b40t1J4V0IMCmIL12dHN6FANOd+NJNp/AuBJiuxJcuOod3IcB0I76cLkl4FwJMF+LLqZKFdyHAnE58OU3S8C4EmFP5GiFOcVB4PzQ81jtfScSZxJfDHfWR4Yh4EwJMUX7twKGOflaDZ0FQlfhymLPCKMBUJL4c4uwgCjDViC/N9QqhAFOJ+NJU7wD2fn24lvjSTJbwZTkPuER8aSJb8LKdD3xLfNkta+iynhdEiC87ZQ9c9vNjXuLLZlXCVuU8mYv4skm1oFU7X8YnvqxWNWRVz5sxiS+rVA9Y9fNnHOLL1UYJ1yjXQW3iy1VGC9Zo10M94suLRg3VqNdFDeLLRaMHavTrIy/x5VmzhGmW6yQX8eVJswVptuulP/HlO7OGaNbrpg/x5SuzB2j26+c84ssXwvOZceAM4ktECM63jAdHE1+E5hnGhSOJ7+QE5jLjw1HEd2LCch3jxBHEd1KCso7xojXxnZCQbGPcaEl8JyMg+xg/WhHfiQhHG8aRFsR3EoLRlvFkL/GdgFAcw7iyh/gOTiCOZXzZSnwHJgznMM5sIb6DEoRzGW/WEt8BCUEfxp01xHcwAtCX8eda4jsQGz8H88A1xHcQNnwu5oOXiO8AbPSczAuXiG9xNnhu5ofniG9hNnYN5omniG9RNnQt5otviW9BNnJN5o3HxLcYG7g288dCfAuxccdgHokQ3zJs2LGYT8S3ABt1TOZ1buKbnA06NvM7L/FNzMacg3mek/gmZUPOxXzPR3wTshHnZN7nIr7J2IBzM//zEN9EbDwirINZiG8SNhyPWQ/jE98EbDSeYl2MTXw7s8G4xPoYl/h2ZGNxDetkTOLbiQ3FGtbLeMS3AxuJLaybsYjvyWwg9rB+xiG+J7JxaME6GoP4nsSGoSXrqT7xPYGNwhGsq9rE92A2CEeyvuoS3wPZGJzBOqtJfA9iQ3Am660e8T2AjUAP1l0t4tuYDUBP1l8d4tuQhU8G1mEN4tuIBU8m1mN+4tuAhU5G1mVu4ruTBU5m1mde4ruDhU0F1mlO4ruRBU0l1ms+f+p9AhXNvpBv7u5/vLm7/6X3efRWaRw+vn39W0S8iYgPDQ/77ubu/rbh8abizncl4f3q+t9/fPv6586n1EXVcZh9/WYivivMvnCfuf4y4Wml+jjMvo6zEN8rzb5gX7j+MuHZa5RxmH09ZyC+V5h9oV55/WXCs9Vo4zD7uu5NfF8w+wJdef1lwrPWqOMw+/ruSXwvmH1hbrz+MuG51ujjMPs670V8nzH7gtx5/WXC85JZxmH29d6D+D5h9oXY6PrLhOc5s43D7Ov+bD5k8Q0LMCIifon91397c3f/rsXJ9NBwHdw+HCs9H8Q4l/g+Irxf/BQRvzU4TskAN14HPz9ErQQBPo9fOzwQ3q/d3N3/EJ/Ho8Vd26x/9a48//bDwcQ3LLTnzBZg4f2afXGs6eNrgV02S4CF92n2x3Gmjq+FdZ3RAyy8l9knx5g2vhbUOqMGWHivY7+0N2V8LaRtRguw8K5j37Q1XXwtoH1GCbDwbmP/tDNVfC2cNqoHWHj3sY/amCa+FkxbVQMsvG3YT/tNEV8L5RjVAiy8bdlX+wwfXwvkWFUCLLzHsL+2Gzq+FsY5sgdYeI9ln20zbHwtiHNlDbDwnsN+W2/Ip5pZCOf7+Pb1h/j8NKw0T0MbLbyfPn1K+2hKT0Nbb7j4zh7em7v7H27u7v/d41GOmQI8YHjfRcS/P336dNvzPC4R4HWG+rWD8H73V/8uH2Lo/SuIQcN7++iPfn716tX7Pmfzstn34bWGie/sE34heFMFeILwLgS4uCHiO/tEXxG6KQI8UXgXAlxY+fjOPsErAjd0gCcM70KAiyod39kndkPYhgzwxOFdCHBBZeM7+4TuCNpQARbeLwS4mJLxnX0iG4RsiABHxD9CeB8T4ELKxXf2CWwYsBEC3Er3+W8Q3oUAF1HqQxYmrqkmnyJbq/EHMVroPv8NwxsR8c4HMWooc+crvH/o/SGGFpLcAXef/8bhfcwdcHIl4muivifAu3Wf/wPDuxDgxNLHd/YJukSAN+s+/yeEdyHASaWO78wTcy0BXq37/J8Y3oUAJ5Q2vrNOyBYCfLXu898hvIs3r169+rXD615lxv2e8t0OM07EHpke5bjVCe+C6D7/HcP7PnN4I+Z8F0S6O1/h3c4d8LO6z3/n8J4+j1vNtP9TxXemgT+KAH+n+/wL7zqzdCBNfGcZ8DMI8Bfd5194t5mhByniO8NAn02A+8+/8O4zehe6x3f0Ae5p4gB3n3/hbWPkPnSN78gDm8WEAe4+/8Lb1qid6PZWs1EHNJvB3ob264X/7ENE/NR7/oW3vVHfhtblzld4zzfCHXBExM3d/V8i4j8j4s+P/vj/Hs6p5eZcTXiPNVo3To/vaANYySgBzkh4zzFSP06N70gDV5UAtye85xqlI6fFd5QBG4EAtyO8fYzQk1PiO8JAjUaA9xPevqp35fD4Vh+gkQnwdsKbQ+W+HBrfygMzCwFeT3hzqdqZw+JbdUBmJMDXE96cKvbmkPhWHIjZCfDLhDe3at1pHt9qA8AfBPh5wltDpf40jW+lC+dpAvw94a2lSoeaxbfKBfMyAf6D8NZUoUdN4lvhQllHgIW3uuxd2h3f7BfIdjMHWHjHkLlPu+Kb+cJoY8YAC+9YsnZq8/N8s14QbR3wPOC/NzjOYYR3PFmfB7wpvsI7l8YB/u8GxziE8I4rY4BXx1d459QwwD88PBA9FeEdX7YAr4qv8M6tYYD/sv9s2hHeeWQK8No7339G2/C+F156Et75PAT4p8aHfbf2b3Rr4/tTtP2Jcdv7S+y4XsN3Pvy6/2z2E945PazjXxof9v3Ht69/XfM/rIpvplt2ztUwvB/WLlJopfFbJxeb3kK5+h/cBHg+jRfsPxoco4mHu8/3HV769uGumxNlCm/Ejg9Z+Me3OczwIQu/fhhftvBG+IQbF8wQ3oUAjytjeCM824FnzBTehQCPJ2t4IzzVjCfMGN6FAI8jc3gjPM+Xb8wc3oUA15c9vBG+yYJHhPcPAlxXhfBG+A43Hgjv9wS4nirhjfDtxYTwXiLAdVQKb8RB8Y0Q4CqE92UCnF+18EYcGN8IAc5OeK8nwHlVDG/EwfGNEOCshHc9Ac6nangjTohvhABnI7zbCXAelcMbcVJ8IwQ4C+HdT4D7qx7eiBPjGyHAvQlvOwLczwjhjTg5vhEC3Mso4X24jr9GxJ8f/uhDRPz68KjTUwnw+UYJb0SH+EYI8NkGCu/f4/O3Hz+1bn6NiJ8evmfuNAJ8npHCG9EpvhECfJaBwntN5D5ExJuz74IF+HijhTeiY3wjBPhok4V3IcCDGTG8EZ3jGyHAR5k0vAsBHsSo4Y1IEN8IAW5t8vAuBLi4kcMbkSS+EQLcivB+RYCLGj28EYniGyHAewnvkwS4mBnCG5EsvhECvJXwXiTARcwS3oiE8Y0Q4LWE9yoCnNxM4Y1IGt8IAb6W8K4iwEnNFt6IxPGNEOCXCO8mApzMjOGNSB7fCAF+jvDuIsBJzBreiIg/9T6BlzxskDfxecO08u7m7v624fFOJby7/RAR/3r4wX6ahwC+P/M1H9x++vTptsPrXjRzeCMKxDdCgB8T3mZmCvD7V69enf2aF80e3ogi8Y0Q4APMHN7FDAFO9ysH4f2sTHwjBDgi4uGRiW8iYs/vK0cI728R8V8NjjNygIU3sVLxjRDgiN0BHiW8bz6+ff0/EdHiWkYMsPAml/7dDs/xLohNi3mk8H754fvwg/Ndg2OP8i4I4S2gbHwjBDhi1aIeMryPXuM2BDhCeMsoHd8IAY64anEPHd5Hr3UbcwdYeAspH98IAY64uMinCO+j17yNOQMsvMUMEd8IAY54crFPFd5Hr30bcwVYeAsaJr4RAhzx1aL/bcbwPjqH25gjwMJb1FDxjRDgiM+L/+yvUH/02t3D++hcbmPsAAtvYcPFN0KAe8kU3sXAARbe4oaMb4QAny1jeBcDBlh4BzBsfCME+CyZw7sYKMDCO4ih4xshwEerEN7FAAG+9XSycQwf3wgBPkql8C6qBzgT4d1nivhGCHBrFcO7EOD9hHe/aeIbIcCtVA7vQoC3E942popvhADvNUJ4FwK8nvC2M118IwR4q5HCuxDg6wlvW1PGN0KA1xoxvAsBfpnwtjdtfCME+Fojh3chwM8T3mNMHd8IAX7JDOFdCPD3hPc408c3QoCfM1N4FwL8B+E9lvg+EOCvzRjehQAL7xnE9xEB/mzm8C4aB/g/Pr59/XuDY51CeM9R7qvjj+Rr6ZsqG96IiIcfmC1i8Xu0XU+HEt7zuPN9gjvg3Xe/pcP72M474FLjILznEt9nCPDmAJcKzjU2BrjUOAjv+cT3AgFeHeBSwVljZYBLjYPw9iG+LxDgqwNcKjhbXBngUuMgvP2I7xUE+MUAlwrOHi8EuNQ4CG9f4nslAX42wKWC08IzAS41DsLbn/iuIMDfBbhUcFr6JsClxkF4cxDflQT4S4B/jELBOcJDgP8WhcZBePMQ3w0EmIqENxfx3UiAqUR48xHfHQSYCoQ3J/HdSYDJTHjzEt8GBJiMhDc38W1EgMlEePMT34YEmAyEtwbxbUyA6Ul46xDfAwgwPQhvLeJ7EAHmTMJbj/geSIA5g/DWJL4HE2COJLx1ie8JBJgjCG9t4nsSAaYl4a1PfE8kwLQgvGMQ35MJMHsI7zjEtwMBZgvhHYv4diLArCG84xHfjgSYawjvmMS3MwHmEuEdl/gmIMA8RXjHJr5JCDCPCe/4xDcRASZCeGchvskI8NyEdx7im5AAz0l45yK+SQnwXIR3PuKbmADPQXjnJL7JCfDYhHde4luAAI9JeOcmvkUI8FiEF/EtRIDHILxEiG85Alyb8LIQ34IEuCbh5THxLUqAaxFeviW+hQlwDcLLU8S3OAHOTXh5jvgOQIBzEl4uEd9BCHAuwstLxHcgApyD8HIN8R2MAPclvFxLfAckwH0IL2uI76AE+FzCy1riOzABPofwsoX4Dk6AjyW8bCW+ExDgYwgve4jvJAS4LeFlL/GdiAC3Iby0IL6TEeB9hJdWxHdCAryN8NKS+E5KgNcRXloT34kJ8HWElyOI7+QE+DLh5SjiiwA/Q3g5kvgSEQL8LeHlaOLLFwL8mfByBvHlK7MHWHg5i/jynVkDLLycSXx50mwBFl7OJr48a5YACy89iC8XjR5g4aUX8eVFowZYeOlJfLnKaAEWXnoTX642SoCFlwzEl1WqB1h4yUJ8Wa1qgIWXTMSXTaoFWHjJRnzZrEqAhZeMxJddsgdYeMlKfNkta4CFl8zElyayBVh4yU58aSZLgIWXCsSXpnoHWHipQnxprleAhZdKxJdDnB1g4aUa8eUwZwVYeKlIfDnU0QEWXqoSXw53VIAj4n9DeClKfDnFQQH+PSL+3PB4wstpxJfTHBTgVoSXU4kvp0oaYOHldOLL6ZIFWHjpQnzpIkmAhZduxJduOgdYeOlKfOmqU4CFl+7El+5ODrDwkoL4ksJJARZe0hBf0jg4wMJLKuJLKgcFWHhJR3xJp3GAhZeUxJeUGgVYeElLfElrZ4CFl9TEl9Q2Blh4SU98SW9lgIWXEsSXEq4MsPBShvhSxgsBFl5KEV9KeSbAwks54ks53wRYeAHOcnN3/+PN3f0vvc8DAAAAAAAAAAAAAAAAAAAAAMjn/wG3Y9fqkakvlwAAAABJRU5ErkJggg==;" vertex="1" parent="u6hc1uQPACvz0U9A136R-47">
          <mxGeometry x="22.5" y="36" width="45" height="45" as="geometry" />
        </mxCell>
        <mxCell id="u6hc1uQPACvz0U9A136R-51" value="" style="sketch=0;html=1;aspect=fixed;strokeColor=#b46504;shadow=0;fillColor=#fad7ac;verticalAlign=top;labelPosition=center;verticalLabelPosition=bottom;shape=mxgraph.gcp2.gear;strokeWidth=2;" vertex="1" parent="1">
          <mxGeometry x="495" y="990" width="100" height="100" as="geometry" />
        </mxCell>
        <mxCell id="u6hc1uQPACvz0U9A136R-52" style="edgeStyle=orthogonalEdgeStyle;rounded=0;orthogonalLoop=1;jettySize=auto;html=1;entryX=-0.008;entryY=0.696;entryDx=0;entryDy=0;entryPerimeter=0;strokeWidth=3;fillColor=#1ba1e2;strokeColor=#006EAF;" edge="1" parent="1" source="u6hc1uQPACvz0U9A136R-46" target="u6hc1uQPACvz0U9A136R-45">
          <mxGeometry relative="1" as="geometry">
            <Array as="points">
              <mxPoint x="440" y="920" />
              <mxPoint x="440" y="799" />
            </Array>
          </mxGeometry>
        </mxCell>
        <mxCell id="u6hc1uQPACvz0U9A136R-53" style="edgeStyle=orthogonalEdgeStyle;rounded=0;orthogonalLoop=1;jettySize=auto;html=1;entryX=0.028;entryY=0.744;entryDx=0;entryDy=0;entryPerimeter=0;strokeWidth=3;fillColor=#1ba1e2;strokeColor=#006EAF;" edge="1" parent="1" source="u6hc1uQPACvz0U9A136R-46" target="u6hc1uQPACvz0U9A136R-49">
          <mxGeometry relative="1" as="geometry" />
        </mxCell>
        <mxCell id="u6hc1uQPACvz0U9A136R-54" style="edgeStyle=orthogonalEdgeStyle;rounded=0;orthogonalLoop=1;jettySize=auto;html=1;entryX=-0.008;entryY=0.635;entryDx=0;entryDy=0;entryPerimeter=0;strokeWidth=3;fillColor=#1ba1e2;strokeColor=#006EAF;" edge="1" parent="1" source="u6hc1uQPACvz0U9A136R-46" target="u6hc1uQPACvz0U9A136R-51">
          <mxGeometry relative="1" as="geometry">
            <Array as="points">
              <mxPoint x="440" y="920" />
              <mxPoint x="440" y="1053" />
            </Array>
          </mxGeometry>
        </mxCell>
        <mxCell id="u6hc1uQPACvz0U9A136R-56" value="" style="shape=image;verticalLabelPosition=bottom;verticalAlign=top;imageAspect=0;aspect=fixed;image=data:image/png,iVBORw0KGgoAAAANSUhEUgAAAV8AAAFfCAYAAADptc+BAAAACXBIWXMAAAsSAAALEgHS3X78AAARs0lEQVR4nO3d7XHcVpaA4aMJgOUQJgKVN4NRBuMIlg5ANbMRbAjeKQYgZTC7EYwzGBcjcAgqJaD9IUKmJLLZAC5wz7n3eX6qbDRwP15CVDc6AgAAAAAAAAAAAAAAAACAK93c3f94c3f/197nAVv9qfcJwFo3d/c/RsS/IuKfN3f3t51PBzZ51fsEYI1H4f3h0R///PHt6/d9zgi2EV/KeCa8CwGmFPGlhBfCuxBgyhBf0rsyvAsBpgTxJbWV4V0IMOmJL2ltDO9CgElNfElpZ3gXAkxa4ks6jcK7EGBSEl9SaRzehQCTjviSxkHhXQgwqYgvKRwc3oUAk4b40t1J4V0IMCmIL12dHN6FANOd+NJNp/AuBJiuxJcuOod3IcB0I76cLkl4FwJMF+LLqZKFdyHAnE58OU3S8C4EmFP5GiFOcVB4PzQ81jtfScSZxJfDHfWR4Yh4EwJMUX7twKGOflaDZ0FQlfhymLPCKMBUJL4c4uwgCjDViC/N9QqhAFOJ+NJU7wD2fn24lvjSTJbwZTkPuER8aSJb8LKdD3xLfNkta+iynhdEiC87ZQ9c9vNjXuLLZlXCVuU8mYv4skm1oFU7X8YnvqxWNWRVz5sxiS+rVA9Y9fNnHOLL1UYJ1yjXQW3iy1VGC9Zo10M94suLRg3VqNdFDeLLRaMHavTrIy/x5VmzhGmW6yQX8eVJswVptuulP/HlO7OGaNbrpg/x5SuzB2j26+c84ssXwvOZceAM4ktECM63jAdHE1+E5hnGhSOJ7+QE5jLjw1HEd2LCch3jxBHEd1KCso7xojXxnZCQbGPcaEl8JyMg+xg/WhHfiQhHG8aRFsR3EoLRlvFkL/GdgFAcw7iyh/gOTiCOZXzZSnwHJgznMM5sIb6DEoRzGW/WEt8BCUEfxp01xHcwAtCX8eda4jsQGz8H88A1xHcQNnwu5oOXiO8AbPSczAuXiG9xNnhu5ofniG9hNnYN5omniG9RNnQt5otviW9BNnJN5o3HxLcYG7g288dCfAuxccdgHokQ3zJs2LGYT8S3ABt1TOZ1buKbnA06NvM7L/FNzMacg3mek/gmZUPOxXzPR3wTshHnZN7nIr7J2IBzM//zEN9EbDwirINZiG8SNhyPWQ/jE98EbDSeYl2MTXw7s8G4xPoYl/h2ZGNxDetkTOLbiQ3FGtbLeMS3AxuJLaybsYjvyWwg9rB+xiG+J7JxaME6GoP4nsSGoSXrqT7xPYGNwhGsq9rE92A2CEeyvuoS3wPZGJzBOqtJfA9iQ3Am660e8T2AjUAP1l0t4tuYDUBP1l8d4tuQhU8G1mEN4tuIBU8m1mN+4tuAhU5G1mVu4ruTBU5m1mde4ruDhU0F1mlO4ruRBU0l1ms+f+p9AhXNvpBv7u5/vLm7/6X3efRWaRw+vn39W0S8iYgPDQ/77ubu/rbh8abizncl4f3q+t9/fPv6586n1EXVcZh9/WYivivMvnCfuf4y4Wml+jjMvo6zEN8rzb5gX7j+MuHZa5RxmH09ZyC+V5h9oV55/WXCs9Vo4zD7uu5NfF8w+wJdef1lwrPWqOMw+/ruSXwvmH1hbrz+MuG51ujjMPs670V8nzH7gtx5/WXC85JZxmH29d6D+D5h9oXY6PrLhOc5s43D7Ov+bD5k8Q0LMCIifon91397c3f/rsXJ9NBwHdw+HCs9H8Q4l/g+Irxf/BQRvzU4TskAN14HPz9ErQQBPo9fOzwQ3q/d3N3/EJ/Ho8Vd26x/9a48//bDwcQ3LLTnzBZg4f2afXGs6eNrgV02S4CF92n2x3Gmjq+FdZ3RAyy8l9knx5g2vhbUOqMGWHivY7+0N2V8LaRtRguw8K5j37Q1XXwtoH1GCbDwbmP/tDNVfC2cNqoHWHj3sY/amCa+FkxbVQMsvG3YT/tNEV8L5RjVAiy8bdlX+wwfXwvkWFUCLLzHsL+2Gzq+FsY5sgdYeI9ln20zbHwtiHNlDbDwnsN+W2/Ip5pZCOf7+Pb1h/j8NKw0T0MbLbyfPn1K+2hKT0Nbb7j4zh7em7v7H27u7v/d41GOmQI8YHjfRcS/P336dNvzPC4R4HWG+rWD8H73V/8uH2Lo/SuIQcN7++iPfn716tX7Pmfzstn34bWGie/sE34heFMFeILwLgS4uCHiO/tEXxG6KQI8UXgXAlxY+fjOPsErAjd0gCcM70KAiyod39kndkPYhgzwxOFdCHBBZeM7+4TuCNpQARbeLwS4mJLxnX0iG4RsiABHxD9CeB8T4ELKxXf2CWwYsBEC3Er3+W8Q3oUAF1HqQxYmrqkmnyJbq/EHMVroPv8NwxsR8c4HMWooc+crvH/o/SGGFpLcAXef/8bhfcwdcHIl4muivifAu3Wf/wPDuxDgxNLHd/YJukSAN+s+/yeEdyHASaWO78wTcy0BXq37/J8Y3oUAJ5Q2vrNOyBYCfLXu898hvIs3r169+rXD615lxv2e8t0OM07EHpke5bjVCe+C6D7/HcP7PnN4I+Z8F0S6O1/h3c4d8LO6z3/n8J4+j1vNtP9TxXemgT+KAH+n+/wL7zqzdCBNfGcZ8DMI8Bfd5194t5mhByniO8NAn02A+8+/8O4zehe6x3f0Ae5p4gB3n3/hbWPkPnSN78gDm8WEAe4+/8Lb1qid6PZWs1EHNJvB3ob264X/7ENE/NR7/oW3vVHfhtblzld4zzfCHXBExM3d/V8i4j8j4s+P/vj/Hs6p5eZcTXiPNVo3To/vaANYySgBzkh4zzFSP06N70gDV5UAtye85xqlI6fFd5QBG4EAtyO8fYzQk1PiO8JAjUaA9xPevqp35fD4Vh+gkQnwdsKbQ+W+HBrfygMzCwFeT3hzqdqZw+JbdUBmJMDXE96cKvbmkPhWHIjZCfDLhDe3at1pHt9qA8AfBPh5wltDpf40jW+lC+dpAvw94a2lSoeaxbfKBfMyAf6D8NZUoUdN4lvhQllHgIW3uuxd2h3f7BfIdjMHWHjHkLlPu+Kb+cJoY8YAC+9YsnZq8/N8s14QbR3wPOC/NzjOYYR3PFmfB7wpvsI7l8YB/u8GxziE8I4rY4BXx1d459QwwD88PBA9FeEdX7YAr4qv8M6tYYD/sv9s2hHeeWQK8No7339G2/C+F156Et75PAT4p8aHfbf2b3Rr4/tTtP2Jcdv7S+y4XsN3Pvy6/2z2E945PazjXxof9v3Ht69/XfM/rIpvplt2ztUwvB/WLlJopfFbJxeb3kK5+h/cBHg+jRfsPxoco4mHu8/3HV769uGumxNlCm/Ejg9Z+Me3OczwIQu/fhhftvBG+IQbF8wQ3oUAjytjeCM824FnzBTehQCPJ2t4IzzVjCfMGN6FAI8jc3gjPM+Xb8wc3oUA15c9vBG+yYJHhPcPAlxXhfBG+A43Hgjv9wS4nirhjfDtxYTwXiLAdVQKb8RB8Y0Q4CqE92UCnF+18EYcGN8IAc5OeK8nwHlVDG/EwfGNEOCshHc9Ac6nangjTohvhABnI7zbCXAelcMbcVJ8IwQ4C+HdT4D7qx7eiBPjGyHAvQlvOwLczwjhjTg5vhEC3Mso4X24jr9GxJ8f/uhDRPz68KjTUwnw+UYJb0SH+EYI8NkGCu/f4/O3Hz+1bn6NiJ8evmfuNAJ8npHCG9EpvhECfJaBwntN5D5ExJuz74IF+HijhTeiY3wjBPhok4V3IcCDGTG8EZ3jGyHAR5k0vAsBHsSo4Y1IEN8IAW5t8vAuBLi4kcMbkSS+EQLcivB+RYCLGj28EYniGyHAewnvkwS4mBnCG5EsvhECvJXwXiTARcwS3oiE8Y0Q4LWE9yoCnNxM4Y1IGt8IAb6W8K4iwEnNFt6IxPGNEOCXCO8mApzMjOGNSB7fCAF+jvDuIsBJzBreiIg/9T6BlzxskDfxecO08u7m7v624fFOJby7/RAR/3r4wX6ahwC+P/M1H9x++vTptsPrXjRzeCMKxDdCgB8T3mZmCvD7V69enf2aF80e3ogi8Y0Q4APMHN7FDAFO9ysH4f2sTHwjBDgi4uGRiW8iYs/vK0cI728R8V8NjjNygIU3sVLxjRDgiN0BHiW8bz6+ff0/EdHiWkYMsPAml/7dDs/xLohNi3mk8H754fvwg/Ndg2OP8i4I4S2gbHwjBDhi1aIeMryPXuM2BDhCeMsoHd8IAY64anEPHd5Hr3UbcwdYeAspH98IAY64uMinCO+j17yNOQMsvMUMEd8IAY54crFPFd5Hr30bcwVYeAsaJr4RAhzx1aL/bcbwPjqH25gjwMJb1FDxjRDgiM+L/+yvUH/02t3D++hcbmPsAAtvYcPFN0KAe8kU3sXAARbe4oaMb4QAny1jeBcDBlh4BzBsfCME+CyZw7sYKMDCO4ih4xshwEerEN7FAAG+9XSycQwf3wgBPkql8C6qBzgT4d1nivhGCHBrFcO7EOD9hHe/aeIbIcCtVA7vQoC3E942popvhADvNUJ4FwK8nvC2M118IwR4q5HCuxDg6wlvW1PGN0KA1xoxvAsBfpnwtjdtfCME+Fojh3chwM8T3mNMHd8IAX7JDOFdCPD3hPc408c3QoCfM1N4FwL8B+E9lvg+EOCvzRjehQAL7xnE9xEB/mzm8C4aB/g/Pr59/XuDY51CeM9R7qvjj+Rr6ZsqG96IiIcfmC1i8Xu0XU+HEt7zuPN9gjvg3Xe/pcP72M474FLjILznEt9nCPDmAJcKzjU2BrjUOAjv+cT3AgFeHeBSwVljZYBLjYPw9iG+LxDgqwNcKjhbXBngUuMgvP2I7xUE+MUAlwrOHi8EuNQ4CG9f4nslAX42wKWC08IzAS41DsLbn/iuIMDfBbhUcFr6JsClxkF4cxDflQT4S4B/jELBOcJDgP8WhcZBePMQ3w0EmIqENxfx3UiAqUR48xHfHQSYCoQ3J/HdSYDJTHjzEt8GBJiMhDc38W1EgMlEePMT34YEmAyEtwbxbUyA6Ul46xDfAwgwPQhvLeJ7EAHmTMJbj/geSIA5g/DWJL4HE2COJLx1ie8JBJgjCG9t4nsSAaYl4a1PfE8kwLQgvGMQ35MJMHsI7zjEtwMBZgvhHYv4diLArCG84xHfjgSYawjvmMS3MwHmEuEdl/gmIMA8RXjHJr5JCDCPCe/4xDcRASZCeGchvskI8NyEdx7im5AAz0l45yK+SQnwXIR3PuKbmADPQXjnJL7JCfDYhHde4luAAI9JeOcmvkUI8FiEF/EtRIDHILxEiG85Alyb8LIQ34IEuCbh5THxLUqAaxFeviW+hQlwDcLLU8S3OAHOTXh5jvgOQIBzEl4uEd9BCHAuwstLxHcgApyD8HIN8R2MAPclvFxLfAckwH0IL2uI76AE+FzCy1riOzABPofwsoX4Dk6AjyW8bCW+ExDgYwgve4jvJAS4LeFlL/GdiAC3Iby0IL6TEeB9hJdWxHdCAryN8NKS+E5KgNcRXloT34kJ8HWElyOI7+QE+DLh5SjiiwA/Q3g5kvgSEQL8LeHlaOLLFwL8mfByBvHlK7MHWHg5i/jynVkDLLycSXx50mwBFl7OJr48a5YACy89iC8XjR5g4aUX8eVFowZYeOlJfLnKaAEWXnoTX642SoCFlwzEl1WqB1h4yUJ8Wa1qgIWXTMSXTaoFWHjJRnzZrEqAhZeMxJddsgdYeMlKfNkta4CFl8zElyayBVh4yU58aSZLgIWXCsSXpnoHWHipQnxprleAhZdKxJdDnB1g4aUa8eUwZwVYeKlIfDnU0QEWXqoSXw53VIAj4n9DeClKfDnFQQH+PSL+3PB4wstpxJfTHBTgVoSXU4kvp0oaYOHldOLL6ZIFWHjpQnzpIkmAhZduxJduOgdYeOlKfOmqU4CFl+7El+5ODrDwkoL4ksJJARZe0hBf0jg4wMJLKuJLKgcFWHhJR3xJp3GAhZeUxJeUGgVYeElLfElrZ4CFl9TEl9Q2Blh4SU98SW9lgIWXEsSXEq4MsPBShvhSxgsBFl5KEV9KeSbAwks54ks53wRYeAHOcnN3/+PN3f0vvc8DAAAAAAAAAAAAAAAAAAAAAMjn/wG3Y9fqkakvlwAAAABJRU5ErkJggg==;" vertex="1" parent="1">
          <mxGeometry x="522.5" y="1017.5" width="45" height="45" as="geometry" />
        </mxCell>
        <mxCell id="u6hc1uQPACvz0U9A136R-57" value="" style="html=1;verticalLabelPosition=bottom;align=center;labelBackgroundColor=#ffffff;verticalAlign=top;strokeWidth=2;strokeColor=#b46504;shadow=0;dashed=0;shape=mxgraph.ios7.icons.cloud;fillColor=#fad7ac;" vertex="1" parent="1">
          <mxGeometry x="1420.0000000000002" y="40" width="117.19" height="70" as="geometry" />
        </mxCell>
        <mxCell id="u6hc1uQPACvz0U9A136R-87" style="edgeStyle=orthogonalEdgeStyle;rounded=0;orthogonalLoop=1;jettySize=auto;html=1;entryX=0.006;entryY=0.731;entryDx=0;entryDy=0;entryPerimeter=0;strokeWidth=3;fillColor=#1ba1e2;strokeColor=#006EAF;" edge="1" parent="1" source="u6hc1uQPACvz0U9A136R-58" target="u6hc1uQPACvz0U9A136R-88">
          <mxGeometry relative="1" as="geometry">
            <mxPoint x="1400" y="190" as="targetPoint" />
          </mxGeometry>
        </mxCell>
        <mxCell id="u6hc1uQPACvz0U9A136R-58" value="Proxy" style="shape=image;verticalLabelPosition=bottom;verticalAlign=top;imageAspect=0;aspect=fixed;image=data:image/png,iVBORw0KGgoAAAANSUhEUgAAAV8AAAFfCAYAAADptc+BAAAACXBIWXMAAAsSAAALEgHS3X78AAARs0lEQVR4nO3d7XHcVpaA4aMJgOUQJgKVN4NRBuMIlg5ANbMRbAjeKQYgZTC7EYwzGBcjcAgqJaD9IUKmJLLZAC5wz7n3eX6qbDRwP15CVDc6AgAAAAAAAAAAAAAAAACAK93c3f94c3f/197nAVv9qfcJwFo3d/c/RsS/IuKfN3f3t51PBzZ51fsEYI1H4f3h0R///PHt6/d9zgi2EV/KeCa8CwGmFPGlhBfCuxBgyhBf0rsyvAsBpgTxJbWV4V0IMOmJL2ltDO9CgElNfElpZ3gXAkxa4ks6jcK7EGBSEl9SaRzehQCTjviSxkHhXQgwqYgvKRwc3oUAk4b40t1J4V0IMCmIL12dHN6FANOd+NJNp/AuBJiuxJcuOod3IcB0I76cLkl4FwJMF+LLqZKFdyHAnE58OU3S8C4EmFP5GiFOcVB4PzQ81jtfScSZxJfDHfWR4Yh4EwJMUX7twKGOflaDZ0FQlfhymLPCKMBUJL4c4uwgCjDViC/N9QqhAFOJ+NJU7wD2fn24lvjSTJbwZTkPuER8aSJb8LKdD3xLfNkta+iynhdEiC87ZQ9c9vNjXuLLZlXCVuU8mYv4skm1oFU7X8YnvqxWNWRVz5sxiS+rVA9Y9fNnHOLL1UYJ1yjXQW3iy1VGC9Zo10M94suLRg3VqNdFDeLLRaMHavTrIy/x5VmzhGmW6yQX8eVJswVptuulP/HlO7OGaNbrpg/x5SuzB2j26+c84ssXwvOZceAM4ktECM63jAdHE1+E5hnGhSOJ7+QE5jLjw1HEd2LCch3jxBHEd1KCso7xojXxnZCQbGPcaEl8JyMg+xg/WhHfiQhHG8aRFsR3EoLRlvFkL/GdgFAcw7iyh/gOTiCOZXzZSnwHJgznMM5sIb6DEoRzGW/WEt8BCUEfxp01xHcwAtCX8eda4jsQGz8H88A1xHcQNnwu5oOXiO8AbPSczAuXiG9xNnhu5ofniG9hNnYN5omniG9RNnQt5otviW9BNnJN5o3HxLcYG7g288dCfAuxccdgHokQ3zJs2LGYT8S3ABt1TOZ1buKbnA06NvM7L/FNzMacg3mek/gmZUPOxXzPR3wTshHnZN7nIr7J2IBzM//zEN9EbDwirINZiG8SNhyPWQ/jE98EbDSeYl2MTXw7s8G4xPoYl/h2ZGNxDetkTOLbiQ3FGtbLeMS3AxuJLaybsYjvyWwg9rB+xiG+J7JxaME6GoP4nsSGoSXrqT7xPYGNwhGsq9rE92A2CEeyvuoS3wPZGJzBOqtJfA9iQ3Am660e8T2AjUAP1l0t4tuYDUBP1l8d4tuQhU8G1mEN4tuIBU8m1mN+4tuAhU5G1mVu4ruTBU5m1mde4ruDhU0F1mlO4ruRBU0l1ms+f+p9AhXNvpBv7u5/vLm7/6X3efRWaRw+vn39W0S8iYgPDQ/77ubu/rbh8abizncl4f3q+t9/fPv6586n1EXVcZh9/WYivivMvnCfuf4y4Wml+jjMvo6zEN8rzb5gX7j+MuHZa5RxmH09ZyC+V5h9oV55/WXCs9Vo4zD7uu5NfF8w+wJdef1lwrPWqOMw+/ruSXwvmH1hbrz+MuG51ujjMPs670V8nzH7gtx5/WXC85JZxmH29d6D+D5h9oXY6PrLhOc5s43D7Ov+bD5k8Q0LMCIifon91397c3f/rsXJ9NBwHdw+HCs9H8Q4l/g+Irxf/BQRvzU4TskAN14HPz9ErQQBPo9fOzwQ3q/d3N3/EJ/Ho8Vd26x/9a48//bDwcQ3LLTnzBZg4f2afXGs6eNrgV02S4CF92n2x3Gmjq+FdZ3RAyy8l9knx5g2vhbUOqMGWHivY7+0N2V8LaRtRguw8K5j37Q1XXwtoH1GCbDwbmP/tDNVfC2cNqoHWHj3sY/amCa+FkxbVQMsvG3YT/tNEV8L5RjVAiy8bdlX+wwfXwvkWFUCLLzHsL+2Gzq+FsY5sgdYeI9ln20zbHwtiHNlDbDwnsN+W2/Ip5pZCOf7+Pb1h/j8NKw0T0MbLbyfPn1K+2hKT0Nbb7j4zh7em7v7H27u7v/d41GOmQI8YHjfRcS/P336dNvzPC4R4HWG+rWD8H73V/8uH2Lo/SuIQcN7++iPfn716tX7Pmfzstn34bWGie/sE34heFMFeILwLgS4uCHiO/tEXxG6KQI8UXgXAlxY+fjOPsErAjd0gCcM70KAiyod39kndkPYhgzwxOFdCHBBZeM7+4TuCNpQARbeLwS4mJLxnX0iG4RsiABHxD9CeB8T4ELKxXf2CWwYsBEC3Er3+W8Q3oUAF1HqQxYmrqkmnyJbq/EHMVroPv8NwxsR8c4HMWooc+crvH/o/SGGFpLcAXef/8bhfcwdcHIl4muivifAu3Wf/wPDuxDgxNLHd/YJukSAN+s+/yeEdyHASaWO78wTcy0BXq37/J8Y3oUAJ5Q2vrNOyBYCfLXu898hvIs3r169+rXD615lxv2e8t0OM07EHpke5bjVCe+C6D7/HcP7PnN4I+Z8F0S6O1/h3c4d8LO6z3/n8J4+j1vNtP9TxXemgT+KAH+n+/wL7zqzdCBNfGcZ8DMI8Bfd5194t5mhByniO8NAn02A+8+/8O4zehe6x3f0Ae5p4gB3n3/hbWPkPnSN78gDm8WEAe4+/8Lb1qid6PZWs1EHNJvB3ob264X/7ENE/NR7/oW3vVHfhtblzld4zzfCHXBExM3d/V8i4j8j4s+P/vj/Hs6p5eZcTXiPNVo3To/vaANYySgBzkh4zzFSP06N70gDV5UAtye85xqlI6fFd5QBG4EAtyO8fYzQk1PiO8JAjUaA9xPevqp35fD4Vh+gkQnwdsKbQ+W+HBrfygMzCwFeT3hzqdqZw+JbdUBmJMDXE96cKvbmkPhWHIjZCfDLhDe3at1pHt9qA8AfBPh5wltDpf40jW+lC+dpAvw94a2lSoeaxbfKBfMyAf6D8NZUoUdN4lvhQllHgIW3uuxd2h3f7BfIdjMHWHjHkLlPu+Kb+cJoY8YAC+9YsnZq8/N8s14QbR3wPOC/NzjOYYR3PFmfB7wpvsI7l8YB/u8GxziE8I4rY4BXx1d459QwwD88PBA9FeEdX7YAr4qv8M6tYYD/sv9s2hHeeWQK8No7339G2/C+F156Et75PAT4p8aHfbf2b3Rr4/tTtP2Jcdv7S+y4XsN3Pvy6/2z2E945PazjXxof9v3Ht69/XfM/rIpvplt2ztUwvB/WLlJopfFbJxeb3kK5+h/cBHg+jRfsPxoco4mHu8/3HV769uGumxNlCm/Ejg9Z+Me3OczwIQu/fhhftvBG+IQbF8wQ3oUAjytjeCM824FnzBTehQCPJ2t4IzzVjCfMGN6FAI8jc3gjPM+Xb8wc3oUA15c9vBG+yYJHhPcPAlxXhfBG+A43Hgjv9wS4nirhjfDtxYTwXiLAdVQKb8RB8Y0Q4CqE92UCnF+18EYcGN8IAc5OeK8nwHlVDG/EwfGNEOCshHc9Ac6nangjTohvhABnI7zbCXAelcMbcVJ8IwQ4C+HdT4D7qx7eiBPjGyHAvQlvOwLczwjhjTg5vhEC3Mso4X24jr9GxJ8f/uhDRPz68KjTUwnw+UYJb0SH+EYI8NkGCu/f4/O3Hz+1bn6NiJ8evmfuNAJ8npHCG9EpvhECfJaBwntN5D5ExJuz74IF+HijhTeiY3wjBPhok4V3IcCDGTG8EZ3jGyHAR5k0vAsBHsSo4Y1IEN8IAW5t8vAuBLi4kcMbkSS+EQLcivB+RYCLGj28EYniGyHAewnvkwS4mBnCG5EsvhECvJXwXiTARcwS3oiE8Y0Q4LWE9yoCnNxM4Y1IGt8IAb6W8K4iwEnNFt6IxPGNEOCXCO8mApzMjOGNSB7fCAF+jvDuIsBJzBreiIg/9T6BlzxskDfxecO08u7m7v624fFOJby7/RAR/3r4wX6ahwC+P/M1H9x++vTptsPrXjRzeCMKxDdCgB8T3mZmCvD7V69enf2aF80e3ogi8Y0Q4APMHN7FDAFO9ysH4f2sTHwjBDgi4uGRiW8iYs/vK0cI728R8V8NjjNygIU3sVLxjRDgiN0BHiW8bz6+ff0/EdHiWkYMsPAml/7dDs/xLohNi3mk8H754fvwg/Ndg2OP8i4I4S2gbHwjBDhi1aIeMryPXuM2BDhCeMsoHd8IAY64anEPHd5Hr3UbcwdYeAspH98IAY64uMinCO+j17yNOQMsvMUMEd8IAY54crFPFd5Hr30bcwVYeAsaJr4RAhzx1aL/bcbwPjqH25gjwMJb1FDxjRDgiM+L/+yvUH/02t3D++hcbmPsAAtvYcPFN0KAe8kU3sXAARbe4oaMb4QAny1jeBcDBlh4BzBsfCME+CyZw7sYKMDCO4ih4xshwEerEN7FAAG+9XSycQwf3wgBPkql8C6qBzgT4d1nivhGCHBrFcO7EOD9hHe/aeIbIcCtVA7vQoC3E942popvhADvNUJ4FwK8nvC2M118IwR4q5HCuxDg6wlvW1PGN0KA1xoxvAsBfpnwtjdtfCME+Fojh3chwM8T3mNMHd8IAX7JDOFdCPD3hPc408c3QoCfM1N4FwL8B+E9lvg+EOCvzRjehQAL7xnE9xEB/mzm8C4aB/g/Pr59/XuDY51CeM9R7qvjj+Rr6ZsqG96IiIcfmC1i8Xu0XU+HEt7zuPN9gjvg3Xe/pcP72M474FLjILznEt9nCPDmAJcKzjU2BrjUOAjv+cT3AgFeHeBSwVljZYBLjYPw9iG+LxDgqwNcKjhbXBngUuMgvP2I7xUE+MUAlwrOHi8EuNQ4CG9f4nslAX42wKWC08IzAS41DsLbn/iuIMDfBbhUcFr6JsClxkF4cxDflQT4S4B/jELBOcJDgP8WhcZBePMQ3w0EmIqENxfx3UiAqUR48xHfHQSYCoQ3J/HdSYDJTHjzEt8GBJiMhDc38W1EgMlEePMT34YEmAyEtwbxbUyA6Ul46xDfAwgwPQhvLeJ7EAHmTMJbj/geSIA5g/DWJL4HE2COJLx1ie8JBJgjCG9t4nsSAaYl4a1PfE8kwLQgvGMQ35MJMHsI7zjEtwMBZgvhHYv4diLArCG84xHfjgSYawjvmMS3MwHmEuEdl/gmIMA8RXjHJr5JCDCPCe/4xDcRASZCeGchvskI8NyEdx7im5AAz0l45yK+SQnwXIR3PuKbmADPQXjnJL7JCfDYhHde4luAAI9JeOcmvkUI8FiEF/EtRIDHILxEiG85Alyb8LIQ34IEuCbh5THxLUqAaxFeviW+hQlwDcLLU8S3OAHOTXh5jvgOQIBzEl4uEd9BCHAuwstLxHcgApyD8HIN8R2MAPclvFxLfAckwH0IL2uI76AE+FzCy1riOzABPofwsoX4Dk6AjyW8bCW+ExDgYwgve4jvJAS4LeFlL/GdiAC3Iby0IL6TEeB9hJdWxHdCAryN8NKS+E5KgNcRXloT34kJ8HWElyOI7+QE+DLh5SjiiwA/Q3g5kvgSEQL8LeHlaOLLFwL8mfByBvHlK7MHWHg5i/jynVkDLLycSXx50mwBFl7OJr48a5YACy89iC8XjR5g4aUX8eVFowZYeOlJfLnKaAEWXnoTX642SoCFlwzEl1WqB1h4yUJ8Wa1qgIWXTMSXTaoFWHjJRnzZrEqAhZeMxJddsgdYeMlKfNkta4CFl8zElyayBVh4yU58aSZLgIWXCsSXpnoHWHipQnxprleAhZdKxJdDnB1g4aUa8eUwZwVYeKlIfDnU0QEWXqoSXw53VIAj4n9DeClKfDnFQQH+PSL+3PB4wstpxJfTHBTgVoSXU4kvp0oaYOHldOLL6ZIFWHjpQnzpIkmAhZduxJduOgdYeOlKfOmqU4CFl+7El+5ODrDwkoL4ksJJARZe0hBf0jg4wMJLKuJLKgcFWHhJR3xJp3GAhZeUxJeUGgVYeElLfElrZ4CFl9TEl9Q2Blh4SU98SW9lgIWXEsSXEq4MsPBShvhSxgsBFl5KEV9KeSbAwks54ks53wRYeAHOcnN3/+PN3f0vvc8DAAAAAAAAAAAAAAAAAAAAAMjn/wG3Y9fqkakvlwAAAABJRU5ErkJggg==;" vertex="1" parent="1">
          <mxGeometry x="1310" y="167.5" width="45" height="45" as="geometry" />
        </mxCell>
        <mxCell id="u6hc1uQPACvz0U9A136R-59" style="edgeStyle=orthogonalEdgeStyle;rounded=0;orthogonalLoop=1;jettySize=auto;html=1;" edge="1" parent="1" source="u6hc1uQPACvz0U9A136R-60" target="u6hc1uQPACvz0U9A136R-66">
          <mxGeometry relative="1" as="geometry" />
        </mxCell>
        <mxCell id="u6hc1uQPACvz0U9A136R-60" value="" style="image;aspect=fixed;perimeter=ellipsePerimeter;html=1;align=center;shadow=0;dashed=0;spacingTop=3;image=img/lib/active_directory/users.svg;" vertex="1" parent="1">
          <mxGeometry x="940" y="282.5" width="49.5" height="75" as="geometry" />
        </mxCell>
        <mxCell id="u6hc1uQPACvz0U9A136R-61" value="Dev / Test teams" style="text;html=1;align=center;verticalAlign=middle;whiteSpace=wrap;rounded=0;" vertex="1" parent="1">
          <mxGeometry x="920" y="230" width="85.25" height="30" as="geometry" />
        </mxCell>
        <mxCell id="u6hc1uQPACvz0U9A136R-62" value="Application / Components under development" style="text;html=1;align=center;verticalAlign=middle;whiteSpace=wrap;rounded=0;" vertex="1" parent="1">
          <mxGeometry x="1040" y="215" width="131.42" height="60" as="geometry" />
        </mxCell>
        <mxCell id="u6hc1uQPACvz0U9A136R-63" value="Cloud integrations" style="text;html=1;align=center;verticalAlign=middle;whiteSpace=wrap;rounded=0;" vertex="1" parent="1">
          <mxGeometry x="1522.3300000000002" y="50" width="131.42" height="60" as="geometry" />
        </mxCell>
        <mxCell id="u6hc1uQPACvz0U9A136R-64" value="Real test database dependencies" style="text;html=1;align=center;verticalAlign=middle;whiteSpace=wrap;rounded=0;" vertex="1" parent="1">
          <mxGeometry x="1380" y="292.5" width="131.42" height="60" as="geometry" />
        </mxCell>
        <mxCell id="u6hc1uQPACvz0U9A136R-65" value="Mocked external services" style="text;html=1;align=center;verticalAlign=middle;whiteSpace=wrap;rounded=0;rotation=0;" vertex="1" parent="1">
          <mxGeometry x="1380.0000000000002" y="420" width="131.42" height="60" as="geometry" />
        </mxCell>
        <mxCell id="u6hc1uQPACvz0U9A136R-79" style="edgeStyle=orthogonalEdgeStyle;rounded=0;orthogonalLoop=1;jettySize=auto;html=1;fillColor=#1ba1e2;strokeColor=#006EAF;strokeWidth=3;" edge="1" parent="1" source="u6hc1uQPACvz0U9A136R-66">
          <mxGeometry relative="1" as="geometry">
            <mxPoint x="1280" y="450" as="targetPoint" />
            <Array as="points">
              <mxPoint x="1200" y="320" />
              <mxPoint x="1200" y="450" />
            </Array>
          </mxGeometry>
        </mxCell>
        <mxCell id="u6hc1uQPACvz0U9A136R-66" value="" style="aspect=fixed;sketch=0;html=1;dashed=0;whitespace=wrap;verticalLabelPosition=bottom;verticalAlign=top;fillColor=#2875E2;strokeColor=#ffffff;points=[[0.005,0.63,0],[0.1,0.2,0],[0.9,0.2,0],[0.5,0,0],[0.995,0.63,0],[0.72,0.99,0],[0.5,1,0],[0.28,0.99,0]];shape=mxgraph.kubernetes.icon2;prIcon=api" vertex="1" parent="1">
          <mxGeometry x="1050" y="277.26" width="89.05" height="85.48" as="geometry" />
        </mxCell>
        <mxCell id="u6hc1uQPACvz0U9A136R-67" value="" style="group" vertex="1" connectable="0" parent="1">
          <mxGeometry x="1290" y="270" width="90" height="100" as="geometry" />
        </mxCell>
        <mxCell id="u6hc1uQPACvz0U9A136R-68" value="" style="strokeWidth=2;html=1;shape=mxgraph.flowchart.database;whiteSpace=wrap;fillColor=#fad7ac;strokeColor=#b46504;" vertex="1" parent="u6hc1uQPACvz0U9A136R-67">
          <mxGeometry y="55.363321799307954" width="89.99999999999991" height="44.63667820069204" as="geometry" />
        </mxCell>
        <mxCell id="u6hc1uQPACvz0U9A136R-69" value="" style="strokeWidth=2;html=1;shape=mxgraph.flowchart.database;whiteSpace=wrap;fillColor=#fad7ac;strokeColor=#b46504;" vertex="1" parent="u6hc1uQPACvz0U9A136R-67">
          <mxGeometry y="27.68363321799307" width="89.99999999999991" height="44.63667820069204" as="geometry" />
        </mxCell>
        <mxCell id="u6hc1uQPACvz0U9A136R-70" value="" style="strokeWidth=2;html=1;shape=mxgraph.flowchart.database;whiteSpace=wrap;fillColor=#fad7ac;strokeColor=#b46504;" vertex="1" parent="u6hc1uQPACvz0U9A136R-67">
          <mxGeometry width="89.99999999999991" height="44.63667820069204" as="geometry" />
        </mxCell>
        <mxCell id="u6hc1uQPACvz0U9A136R-72" value="" style="sketch=0;html=1;aspect=fixed;strokeColor=#b46504;shadow=0;fillColor=#fad7ac;verticalAlign=top;labelPosition=center;verticalLabelPosition=bottom;shape=mxgraph.gcp2.gear;strokeWidth=2;" vertex="1" parent="1">
          <mxGeometry x="1285" y="400" width="100" height="100" as="geometry" />
        </mxCell>
        <mxCell id="u6hc1uQPACvz0U9A136R-73" style="edgeStyle=orthogonalEdgeStyle;rounded=0;orthogonalLoop=1;jettySize=auto;html=1;entryX=0;entryY=0.5;entryDx=0;entryDy=0;fillColor=#60a917;strokeColor=#2D7600;strokeWidth=3;" edge="1" parent="1" source="u6hc1uQPACvz0U9A136R-66" target="u6hc1uQPACvz0U9A136R-58">
          <mxGeometry relative="1" as="geometry">
            <Array as="points">
              <mxPoint x="1200" y="320" />
              <mxPoint x="1200" y="190" />
              <mxPoint x="1287" y="190" />
            </Array>
          </mxGeometry>
        </mxCell>
        <mxCell id="u6hc1uQPACvz0U9A136R-74" style="edgeStyle=orthogonalEdgeStyle;rounded=0;orthogonalLoop=1;jettySize=auto;html=1;entryX=0;entryY=0.5;entryDx=0;entryDy=0;fillColor=#60a917;strokeColor=#2D7600;strokeWidth=3;" edge="1" parent="1" source="u6hc1uQPACvz0U9A136R-66">
          <mxGeometry relative="1" as="geometry">
            <mxPoint x="1287.5" y="320" as="targetPoint" />
          </mxGeometry>
        </mxCell>
        <mxCell id="u6hc1uQPACvz0U9A136R-80" style="edgeStyle=orthogonalEdgeStyle;rounded=0;orthogonalLoop=1;jettySize=auto;html=1;" edge="1" parent="1" source="u6hc1uQPACvz0U9A136R-76" target="u6hc1uQPACvz0U9A136R-72">
          <mxGeometry relative="1" as="geometry">
            <Array as="points">
              <mxPoint x="1310" y="400" />
            </Array>
          </mxGeometry>
        </mxCell>
        <mxCell id="u6hc1uQPACvz0U9A136R-76" value="" style="shape=image;verticalLabelPosition=bottom;verticalAlign=top;imageAspect=0;aspect=fixed;image=data:image/png,iVBORw0KGgoAAAANSUhEUgAAAV8AAAFfCAYAAADptc+BAAAACXBIWXMAAAsSAAALEgHS3X78AAARs0lEQVR4nO3d7XHcVpaA4aMJgOUQJgKVN4NRBuMIlg5ANbMRbAjeKQYgZTC7EYwzGBcjcAgqJaD9IUKmJLLZAC5wz7n3eX6qbDRwP15CVDc6AgAAAAAAAAAAAAAAAACAK93c3f94c3f/197nAVv9qfcJwFo3d/c/RsS/IuKfN3f3t51PBzZ51fsEYI1H4f3h0R///PHt6/d9zgi2EV/KeCa8CwGmFPGlhBfCuxBgyhBf0rsyvAsBpgTxJbWV4V0IMOmJL2ltDO9CgElNfElpZ3gXAkxa4ks6jcK7EGBSEl9SaRzehQCTjviSxkHhXQgwqYgvKRwc3oUAk4b40t1J4V0IMCmIL12dHN6FANOd+NJNp/AuBJiuxJcuOod3IcB0I76cLkl4FwJMF+LLqZKFdyHAnE58OU3S8C4EmFP5GiFOcVB4PzQ81jtfScSZxJfDHfWR4Yh4EwJMUX7twKGOflaDZ0FQlfhymLPCKMBUJL4c4uwgCjDViC/N9QqhAFOJ+NJU7wD2fn24lvjSTJbwZTkPuER8aSJb8LKdD3xLfNkta+iynhdEiC87ZQ9c9vNjXuLLZlXCVuU8mYv4skm1oFU7X8YnvqxWNWRVz5sxiS+rVA9Y9fNnHOLL1UYJ1yjXQW3iy1VGC9Zo10M94suLRg3VqNdFDeLLRaMHavTrIy/x5VmzhGmW6yQX8eVJswVptuulP/HlO7OGaNbrpg/x5SuzB2j26+c84ssXwvOZceAM4ktECM63jAdHE1+E5hnGhSOJ7+QE5jLjw1HEd2LCch3jxBHEd1KCso7xojXxnZCQbGPcaEl8JyMg+xg/WhHfiQhHG8aRFsR3EoLRlvFkL/GdgFAcw7iyh/gOTiCOZXzZSnwHJgznMM5sIb6DEoRzGW/WEt8BCUEfxp01xHcwAtCX8eda4jsQGz8H88A1xHcQNnwu5oOXiO8AbPSczAuXiG9xNnhu5ofniG9hNnYN5omniG9RNnQt5otviW9BNnJN5o3HxLcYG7g288dCfAuxccdgHokQ3zJs2LGYT8S3ABt1TOZ1buKbnA06NvM7L/FNzMacg3mek/gmZUPOxXzPR3wTshHnZN7nIr7J2IBzM//zEN9EbDwirINZiG8SNhyPWQ/jE98EbDSeYl2MTXw7s8G4xPoYl/h2ZGNxDetkTOLbiQ3FGtbLeMS3AxuJLaybsYjvyWwg9rB+xiG+J7JxaME6GoP4nsSGoSXrqT7xPYGNwhGsq9rE92A2CEeyvuoS3wPZGJzBOqtJfA9iQ3Am660e8T2AjUAP1l0t4tuYDUBP1l8d4tuQhU8G1mEN4tuIBU8m1mN+4tuAhU5G1mVu4ruTBU5m1mde4ruDhU0F1mlO4ruRBU0l1ms+f+p9AhXNvpBv7u5/vLm7/6X3efRWaRw+vn39W0S8iYgPDQ/77ubu/rbh8abizncl4f3q+t9/fPv6586n1EXVcZh9/WYivivMvnCfuf4y4Wml+jjMvo6zEN8rzb5gX7j+MuHZa5RxmH09ZyC+V5h9oV55/WXCs9Vo4zD7uu5NfF8w+wJdef1lwrPWqOMw+/ruSXwvmH1hbrz+MuG51ujjMPs670V8nzH7gtx5/WXC85JZxmH29d6D+D5h9oXY6PrLhOc5s43D7Ov+bD5k8Q0LMCIifon91397c3f/rsXJ9NBwHdw+HCs9H8Q4l/g+Irxf/BQRvzU4TskAN14HPz9ErQQBPo9fOzwQ3q/d3N3/EJ/Ho8Vd26x/9a48//bDwcQ3LLTnzBZg4f2afXGs6eNrgV02S4CF92n2x3Gmjq+FdZ3RAyy8l9knx5g2vhbUOqMGWHivY7+0N2V8LaRtRguw8K5j37Q1XXwtoH1GCbDwbmP/tDNVfC2cNqoHWHj3sY/amCa+FkxbVQMsvG3YT/tNEV8L5RjVAiy8bdlX+wwfXwvkWFUCLLzHsL+2Gzq+FsY5sgdYeI9ln20zbHwtiHNlDbDwnsN+W2/Ip5pZCOf7+Pb1h/j8NKw0T0MbLbyfPn1K+2hKT0Nbb7j4zh7em7v7H27u7v/d41GOmQI8YHjfRcS/P336dNvzPC4R4HWG+rWD8H73V/8uH2Lo/SuIQcN7++iPfn716tX7Pmfzstn34bWGie/sE34heFMFeILwLgS4uCHiO/tEXxG6KQI8UXgXAlxY+fjOPsErAjd0gCcM70KAiyod39kndkPYhgzwxOFdCHBBZeM7+4TuCNpQARbeLwS4mJLxnX0iG4RsiABHxD9CeB8T4ELKxXf2CWwYsBEC3Er3+W8Q3oUAF1HqQxYmrqkmnyJbq/EHMVroPv8NwxsR8c4HMWooc+crvH/o/SGGFpLcAXef/8bhfcwdcHIl4muivifAu3Wf/wPDuxDgxNLHd/YJukSAN+s+/yeEdyHASaWO78wTcy0BXq37/J8Y3oUAJ5Q2vrNOyBYCfLXu898hvIs3r169+rXD615lxv2e8t0OM07EHpke5bjVCe+C6D7/HcP7PnN4I+Z8F0S6O1/h3c4d8LO6z3/n8J4+j1vNtP9TxXemgT+KAH+n+/wL7zqzdCBNfGcZ8DMI8Bfd5194t5mhByniO8NAn02A+8+/8O4zehe6x3f0Ae5p4gB3n3/hbWPkPnSN78gDm8WEAe4+/8Lb1qid6PZWs1EHNJvB3ob264X/7ENE/NR7/oW3vVHfhtblzld4zzfCHXBExM3d/V8i4j8j4s+P/vj/Hs6p5eZcTXiPNVo3To/vaANYySgBzkh4zzFSP06N70gDV5UAtye85xqlI6fFd5QBG4EAtyO8fYzQk1PiO8JAjUaA9xPevqp35fD4Vh+gkQnwdsKbQ+W+HBrfygMzCwFeT3hzqdqZw+JbdUBmJMDXE96cKvbmkPhWHIjZCfDLhDe3at1pHt9qA8AfBPh5wltDpf40jW+lC+dpAvw94a2lSoeaxbfKBfMyAf6D8NZUoUdN4lvhQllHgIW3uuxd2h3f7BfIdjMHWHjHkLlPu+Kb+cJoY8YAC+9YsnZq8/N8s14QbR3wPOC/NzjOYYR3PFmfB7wpvsI7l8YB/u8GxziE8I4rY4BXx1d459QwwD88PBA9FeEdX7YAr4qv8M6tYYD/sv9s2hHeeWQK8No7339G2/C+F156Et75PAT4p8aHfbf2b3Rr4/tTtP2Jcdv7S+y4XsN3Pvy6/2z2E945PazjXxof9v3Ht69/XfM/rIpvplt2ztUwvB/WLlJopfFbJxeb3kK5+h/cBHg+jRfsPxoco4mHu8/3HV769uGumxNlCm/Ejg9Z+Me3OczwIQu/fhhftvBG+IQbF8wQ3oUAjytjeCM824FnzBTehQCPJ2t4IzzVjCfMGN6FAI8jc3gjPM+Xb8wc3oUA15c9vBG+yYJHhPcPAlxXhfBG+A43Hgjv9wS4nirhjfDtxYTwXiLAdVQKb8RB8Y0Q4CqE92UCnF+18EYcGN8IAc5OeK8nwHlVDG/EwfGNEOCshHc9Ac6nangjTohvhABnI7zbCXAelcMbcVJ8IwQ4C+HdT4D7qx7eiBPjGyHAvQlvOwLczwjhjTg5vhEC3Mso4X24jr9GxJ8f/uhDRPz68KjTUwnw+UYJb0SH+EYI8NkGCu/f4/O3Hz+1bn6NiJ8evmfuNAJ8npHCG9EpvhECfJaBwntN5D5ExJuz74IF+HijhTeiY3wjBPhok4V3IcCDGTG8EZ3jGyHAR5k0vAsBHsSo4Y1IEN8IAW5t8vAuBLi4kcMbkSS+EQLcivB+RYCLGj28EYniGyHAewnvkwS4mBnCG5EsvhECvJXwXiTARcwS3oiE8Y0Q4LWE9yoCnNxM4Y1IGt8IAb6W8K4iwEnNFt6IxPGNEOCXCO8mApzMjOGNSB7fCAF+jvDuIsBJzBreiIg/9T6BlzxskDfxecO08u7m7v624fFOJby7/RAR/3r4wX6ahwC+P/M1H9x++vTptsPrXjRzeCMKxDdCgB8T3mZmCvD7V69enf2aF80e3ogi8Y0Q4APMHN7FDAFO9ysH4f2sTHwjBDgi4uGRiW8iYs/vK0cI728R8V8NjjNygIU3sVLxjRDgiN0BHiW8bz6+ff0/EdHiWkYMsPAml/7dDs/xLohNi3mk8H754fvwg/Ndg2OP8i4I4S2gbHwjBDhi1aIeMryPXuM2BDhCeMsoHd8IAY64anEPHd5Hr3UbcwdYeAspH98IAY64uMinCO+j17yNOQMsvMUMEd8IAY54crFPFd5Hr30bcwVYeAsaJr4RAhzx1aL/bcbwPjqH25gjwMJb1FDxjRDgiM+L/+yvUH/02t3D++hcbmPsAAtvYcPFN0KAe8kU3sXAARbe4oaMb4QAny1jeBcDBlh4BzBsfCME+CyZw7sYKMDCO4ih4xshwEerEN7FAAG+9XSycQwf3wgBPkql8C6qBzgT4d1nivhGCHBrFcO7EOD9hHe/aeIbIcCtVA7vQoC3E942popvhADvNUJ4FwK8nvC2M118IwR4q5HCuxDg6wlvW1PGN0KA1xoxvAsBfpnwtjdtfCME+Fojh3chwM8T3mNMHd8IAX7JDOFdCPD3hPc408c3QoCfM1N4FwL8B+E9lvg+EOCvzRjehQAL7xnE9xEB/mzm8C4aB/g/Pr59/XuDY51CeM9R7qvjj+Rr6ZsqG96IiIcfmC1i8Xu0XU+HEt7zuPN9gjvg3Xe/pcP72M474FLjILznEt9nCPDmAJcKzjU2BrjUOAjv+cT3AgFeHeBSwVljZYBLjYPw9iG+LxDgqwNcKjhbXBngUuMgvP2I7xUE+MUAlwrOHi8EuNQ4CG9f4nslAX42wKWC08IzAS41DsLbn/iuIMDfBbhUcFr6JsClxkF4cxDflQT4S4B/jELBOcJDgP8WhcZBePMQ3w0EmIqENxfx3UiAqUR48xHfHQSYCoQ3J/HdSYDJTHjzEt8GBJiMhDc38W1EgMlEePMT34YEmAyEtwbxbUyA6Ul46xDfAwgwPQhvLeJ7EAHmTMJbj/geSIA5g/DWJL4HE2COJLx1ie8JBJgjCG9t4nsSAaYl4a1PfE8kwLQgvGMQ35MJMHsI7zjEtwMBZgvhHYv4diLArCG84xHfjgSYawjvmMS3MwHmEuEdl/gmIMA8RXjHJr5JCDCPCe/4xDcRASZCeGchvskI8NyEdx7im5AAz0l45yK+SQnwXIR3PuKbmADPQXjnJL7JCfDYhHde4luAAI9JeOcmvkUI8FiEF/EtRIDHILxEiG85Alyb8LIQ34IEuCbh5THxLUqAaxFeviW+hQlwDcLLU8S3OAHOTXh5jvgOQIBzEl4uEd9BCHAuwstLxHcgApyD8HIN8R2MAPclvFxLfAckwH0IL2uI76AE+FzCy1riOzABPofwsoX4Dk6AjyW8bCW+ExDgYwgve4jvJAS4LeFlL/GdiAC3Iby0IL6TEeB9hJdWxHdCAryN8NKS+E5KgNcRXloT34kJ8HWElyOI7+QE+DLh5SjiiwA/Q3g5kvgSEQL8LeHlaOLLFwL8mfByBvHlK7MHWHg5i/jynVkDLLycSXx50mwBFl7OJr48a5YACy89iC8XjR5g4aUX8eVFowZYeOlJfLnKaAEWXnoTX642SoCFlwzEl1WqB1h4yUJ8Wa1qgIWXTMSXTaoFWHjJRnzZrEqAhZeMxJddsgdYeMlKfNkta4CFl8zElyayBVh4yU58aSZLgIWXCsSXpnoHWHipQnxprleAhZdKxJdDnB1g4aUa8eUwZwVYeKlIfDnU0QEWXqoSXw53VIAj4n9DeClKfDnFQQH+PSL+3PB4wstpxJfTHBTgVoSXU4kvp0oaYOHldOLL6ZIFWHjpQnzpIkmAhZduxJduOgdYeOlKfOmqU4CFl+7El+5ODrDwkoL4ksJJARZe0hBf0jg4wMJLKuJLKgcFWHhJR3xJp3GAhZeUxJeUGgVYeElLfElrZ4CFl9TEl9Q2Blh4SU98SW9lgIWXEsSXEq4MsPBShvhSxgsBFl5KEV9KeSbAwks54ks53wRYeAHOcnN3/+PN3f0vvc8DAAAAAAAAAAAAAAAAAAAAAMjn/wG3Y9fqkakvlwAAAABJRU5ErkJggg==;" vertex="1" parent="1">
          <mxGeometry x="1312.5" y="427.5" width="45" height="45" as="geometry" />
        </mxCell>
        <mxCell id="u6hc1uQPACvz0U9A136R-77" style="edgeStyle=orthogonalEdgeStyle;rounded=0;orthogonalLoop=1;jettySize=auto;html=1;entryX=-0.002;entryY=0.706;entryDx=0;entryDy=0;entryPerimeter=0;fillColor=#e51400;strokeColor=#B20000;strokeWidth=3;" edge="1" parent="1" source="u6hc1uQPACvz0U9A136R-58" target="u6hc1uQPACvz0U9A136R-57">
          <mxGeometry relative="1" as="geometry">
            <Array as="points">
              <mxPoint x="1333" y="89" />
              <mxPoint x="1381" y="89" />
            </Array>
          </mxGeometry>
        </mxCell>
        <mxCell id="u6hc1uQPACvz0U9A136R-82" value="" style="shape=image;verticalLabelPosition=bottom;verticalAlign=top;imageAspect=0;aspect=fixed;image=data:image/png,iVBORw0KGgoAAAANSUhEUgAAAV8AAAFfCAYAAADptc+BAAAACXBIWXMAAAsSAAALEgHS3X78AAARs0lEQVR4nO3d7XHcVpaA4aMJgOUQJgKVN4NRBuMIlg5ANbMRbAjeKQYgZTC7EYwzGBcjcAgqJaD9IUKmJLLZAC5wz7n3eX6qbDRwP15CVDc6AgAAAAAAAAAAAAAAAACAK93c3f94c3f/197nAVv9qfcJwFo3d/c/RsS/IuKfN3f3t51PBzZ51fsEYI1H4f3h0R///PHt6/d9zgi2EV/KeCa8CwGmFPGlhBfCuxBgyhBf0rsyvAsBpgTxJbWV4V0IMOmJL2ltDO9CgElNfElpZ3gXAkxa4ks6jcK7EGBSEl9SaRzehQCTjviSxkHhXQgwqYgvKRwc3oUAk4b40t1J4V0IMCmIL12dHN6FANOd+NJNp/AuBJiuxJcuOod3IcB0I76cLkl4FwJMF+LLqZKFdyHAnE58OU3S8C4EmFP5GiFOcVB4PzQ81jtfScSZxJfDHfWR4Yh4EwJMUX7twKGOflaDZ0FQlfhymLPCKMBUJL4c4uwgCjDViC/N9QqhAFOJ+NJU7wD2fn24lvjSTJbwZTkPuER8aSJb8LKdD3xLfNkta+iynhdEiC87ZQ9c9vNjXuLLZlXCVuU8mYv4skm1oFU7X8YnvqxWNWRVz5sxiS+rVA9Y9fNnHOLL1UYJ1yjXQW3iy1VGC9Zo10M94suLRg3VqNdFDeLLRaMHavTrIy/x5VmzhGmW6yQX8eVJswVptuulP/HlO7OGaNbrpg/x5SuzB2j26+c84ssXwvOZceAM4ktECM63jAdHE1+E5hnGhSOJ7+QE5jLjw1HEd2LCch3jxBHEd1KCso7xojXxnZCQbGPcaEl8JyMg+xg/WhHfiQhHG8aRFsR3EoLRlvFkL/GdgFAcw7iyh/gOTiCOZXzZSnwHJgznMM5sIb6DEoRzGW/WEt8BCUEfxp01xHcwAtCX8eda4jsQGz8H88A1xHcQNnwu5oOXiO8AbPSczAuXiG9xNnhu5ofniG9hNnYN5omniG9RNnQt5otviW9BNnJN5o3HxLcYG7g288dCfAuxccdgHokQ3zJs2LGYT8S3ABt1TOZ1buKbnA06NvM7L/FNzMacg3mek/gmZUPOxXzPR3wTshHnZN7nIr7J2IBzM//zEN9EbDwirINZiG8SNhyPWQ/jE98EbDSeYl2MTXw7s8G4xPoYl/h2ZGNxDetkTOLbiQ3FGtbLeMS3AxuJLaybsYjvyWwg9rB+xiG+J7JxaME6GoP4nsSGoSXrqT7xPYGNwhGsq9rE92A2CEeyvuoS3wPZGJzBOqtJfA9iQ3Am660e8T2AjUAP1l0t4tuYDUBP1l8d4tuQhU8G1mEN4tuIBU8m1mN+4tuAhU5G1mVu4ruTBU5m1mde4ruDhU0F1mlO4ruRBU0l1ms+f+p9AhXNvpBv7u5/vLm7/6X3efRWaRw+vn39W0S8iYgPDQ/77ubu/rbh8abizncl4f3q+t9/fPv6586n1EXVcZh9/WYivivMvnCfuf4y4Wml+jjMvo6zEN8rzb5gX7j+MuHZa5RxmH09ZyC+V5h9oV55/WXCs9Vo4zD7uu5NfF8w+wJdef1lwrPWqOMw+/ruSXwvmH1hbrz+MuG51ujjMPs670V8nzH7gtx5/WXC85JZxmH29d6D+D5h9oXY6PrLhOc5s43D7Ov+bD5k8Q0LMCIifon91397c3f/rsXJ9NBwHdw+HCs9H8Q4l/g+Irxf/BQRvzU4TskAN14HPz9ErQQBPo9fOzwQ3q/d3N3/EJ/Ho8Vd26x/9a48//bDwcQ3LLTnzBZg4f2afXGs6eNrgV02S4CF92n2x3Gmjq+FdZ3RAyy8l9knx5g2vhbUOqMGWHivY7+0N2V8LaRtRguw8K5j37Q1XXwtoH1GCbDwbmP/tDNVfC2cNqoHWHj3sY/amCa+FkxbVQMsvG3YT/tNEV8L5RjVAiy8bdlX+wwfXwvkWFUCLLzHsL+2Gzq+FsY5sgdYeI9ln20zbHwtiHNlDbDwnsN+W2/Ip5pZCOf7+Pb1h/j8NKw0T0MbLbyfPn1K+2hKT0Nbb7j4zh7em7v7H27u7v/d41GOmQI8YHjfRcS/P336dNvzPC4R4HWG+rWD8H73V/8uH2Lo/SuIQcN7++iPfn716tX7Pmfzstn34bWGie/sE34heFMFeILwLgS4uCHiO/tEXxG6KQI8UXgXAlxY+fjOPsErAjd0gCcM70KAiyod39kndkPYhgzwxOFdCHBBZeM7+4TuCNpQARbeLwS4mJLxnX0iG4RsiABHxD9CeB8T4ELKxXf2CWwYsBEC3Er3+W8Q3oUAF1HqQxYmrqkmnyJbq/EHMVroPv8NwxsR8c4HMWooc+crvH/o/SGGFpLcAXef/8bhfcwdcHIl4muivifAu3Wf/wPDuxDgxNLHd/YJukSAN+s+/yeEdyHASaWO78wTcy0BXq37/J8Y3oUAJ5Q2vrNOyBYCfLXu898hvIs3r169+rXD615lxv2e8t0OM07EHpke5bjVCe+C6D7/HcP7PnN4I+Z8F0S6O1/h3c4d8LO6z3/n8J4+j1vNtP9TxXemgT+KAH+n+/wL7zqzdCBNfGcZ8DMI8Bfd5194t5mhByniO8NAn02A+8+/8O4zehe6x3f0Ae5p4gB3n3/hbWPkPnSN78gDm8WEAe4+/8Lb1qid6PZWs1EHNJvB3ob264X/7ENE/NR7/oW3vVHfhtblzld4zzfCHXBExM3d/V8i4j8j4s+P/vj/Hs6p5eZcTXiPNVo3To/vaANYySgBzkh4zzFSP06N70gDV5UAtye85xqlI6fFd5QBG4EAtyO8fYzQk1PiO8JAjUaA9xPevqp35fD4Vh+gkQnwdsKbQ+W+HBrfygMzCwFeT3hzqdqZw+JbdUBmJMDXE96cKvbmkPhWHIjZCfDLhDe3at1pHt9qA8AfBPh5wltDpf40jW+lC+dpAvw94a2lSoeaxbfKBfMyAf6D8NZUoUdN4lvhQllHgIW3uuxd2h3f7BfIdjMHWHjHkLlPu+Kb+cJoY8YAC+9YsnZq8/N8s14QbR3wPOC/NzjOYYR3PFmfB7wpvsI7l8YB/u8GxziE8I4rY4BXx1d459QwwD88PBA9FeEdX7YAr4qv8M6tYYD/sv9s2hHeeWQK8No7339G2/C+F156Et75PAT4p8aHfbf2b3Rr4/tTtP2Jcdv7S+y4XsN3Pvy6/2z2E945PazjXxof9v3Ht69/XfM/rIpvplt2ztUwvB/WLlJopfFbJxeb3kK5+h/cBHg+jRfsPxoco4mHu8/3HV769uGumxNlCm/Ejg9Z+Me3OczwIQu/fhhftvBG+IQbF8wQ3oUAjytjeCM824FnzBTehQCPJ2t4IzzVjCfMGN6FAI8jc3gjPM+Xb8wc3oUA15c9vBG+yYJHhPcPAlxXhfBG+A43Hgjv9wS4nirhjfDtxYTwXiLAdVQKb8RB8Y0Q4CqE92UCnF+18EYcGN8IAc5OeK8nwHlVDG/EwfGNEOCshHc9Ac6nangjTohvhABnI7zbCXAelcMbcVJ8IwQ4C+HdT4D7qx7eiBPjGyHAvQlvOwLczwjhjTg5vhEC3Mso4X24jr9GxJ8f/uhDRPz68KjTUwnw+UYJb0SH+EYI8NkGCu/f4/O3Hz+1bn6NiJ8evmfuNAJ8npHCG9EpvhECfJaBwntN5D5ExJuz74IF+HijhTeiY3wjBPhok4V3IcCDGTG8EZ3jGyHAR5k0vAsBHsSo4Y1IEN8IAW5t8vAuBLi4kcMbkSS+EQLcivB+RYCLGj28EYniGyHAewnvkwS4mBnCG5EsvhECvJXwXiTARcwS3oiE8Y0Q4LWE9yoCnNxM4Y1IGt8IAb6W8K4iwEnNFt6IxPGNEOCXCO8mApzMjOGNSB7fCAF+jvDuIsBJzBreiIg/9T6BlzxskDfxecO08u7m7v624fFOJby7/RAR/3r4wX6ahwC+P/M1H9x++vTptsPrXjRzeCMKxDdCgB8T3mZmCvD7V69enf2aF80e3ogi8Y0Q4APMHN7FDAFO9ysH4f2sTHwjBDgi4uGRiW8iYs/vK0cI728R8V8NjjNygIU3sVLxjRDgiN0BHiW8bz6+ff0/EdHiWkYMsPAml/7dDs/xLohNi3mk8H754fvwg/Ndg2OP8i4I4S2gbHwjBDhi1aIeMryPXuM2BDhCeMsoHd8IAY64anEPHd5Hr3UbcwdYeAspH98IAY64uMinCO+j17yNOQMsvMUMEd8IAY54crFPFd5Hr30bcwVYeAsaJr4RAhzx1aL/bcbwPjqH25gjwMJb1FDxjRDgiM+L/+yvUH/02t3D++hcbmPsAAtvYcPFN0KAe8kU3sXAARbe4oaMb4QAny1jeBcDBlh4BzBsfCME+CyZw7sYKMDCO4ih4xshwEerEN7FAAG+9XSycQwf3wgBPkql8C6qBzgT4d1nivhGCHBrFcO7EOD9hHe/aeIbIcCtVA7vQoC3E942popvhADvNUJ4FwK8nvC2M118IwR4q5HCuxDg6wlvW1PGN0KA1xoxvAsBfpnwtjdtfCME+Fojh3chwM8T3mNMHd8IAX7JDOFdCPD3hPc408c3QoCfM1N4FwL8B+E9lvg+EOCvzRjehQAL7xnE9xEB/mzm8C4aB/g/Pr59/XuDY51CeM9R7qvjj+Rr6ZsqG96IiIcfmC1i8Xu0XU+HEt7zuPN9gjvg3Xe/pcP72M474FLjILznEt9nCPDmAJcKzjU2BrjUOAjv+cT3AgFeHeBSwVljZYBLjYPw9iG+LxDgqwNcKjhbXBngUuMgvP2I7xUE+MUAlwrOHi8EuNQ4CG9f4nslAX42wKWC08IzAS41DsLbn/iuIMDfBbhUcFr6JsClxkF4cxDflQT4S4B/jELBOcJDgP8WhcZBePMQ3w0EmIqENxfx3UiAqUR48xHfHQSYCoQ3J/HdSYDJTHjzEt8GBJiMhDc38W1EgMlEePMT34YEmAyEtwbxbUyA6Ul46xDfAwgwPQhvLeJ7EAHmTMJbj/geSIA5g/DWJL4HE2COJLx1ie8JBJgjCG9t4nsSAaYl4a1PfE8kwLQgvGMQ35MJMHsI7zjEtwMBZgvhHYv4diLArCG84xHfjgSYawjvmMS3MwHmEuEdl/gmIMA8RXjHJr5JCDCPCe/4xDcRASZCeGchvskI8NyEdx7im5AAz0l45yK+SQnwXIR3PuKbmADPQXjnJL7JCfDYhHde4luAAI9JeOcmvkUI8FiEF/EtRIDHILxEiG85Alyb8LIQ34IEuCbh5THxLUqAaxFeviW+hQlwDcLLU8S3OAHOTXh5jvgOQIBzEl4uEd9BCHAuwstLxHcgApyD8HIN8R2MAPclvFxLfAckwH0IL2uI76AE+FzCy1riOzABPofwsoX4Dk6AjyW8bCW+ExDgYwgve4jvJAS4LeFlL/GdiAC3Iby0IL6TEeB9hJdWxHdCAryN8NKS+E5KgNcRXloT34kJ8HWElyOI7+QE+DLh5SjiiwA/Q3g5kvgSEQL8LeHlaOLLFwL8mfByBvHlK7MHWHg5i/jynVkDLLycSXx50mwBFl7OJr48a5YACy89iC8XjR5g4aUX8eVFowZYeOlJfLnKaAEWXnoTX642SoCFlwzEl1WqB1h4yUJ8Wa1qgIWXTMSXTaoFWHjJRnzZrEqAhZeMxJddsgdYeMlKfNkta4CFl8zElyayBVh4yU58aSZLgIWXCsSXpnoHWHipQnxprleAhZdKxJdDnB1g4aUa8eUwZwVYeKlIfDnU0QEWXqoSXw53VIAj4n9DeClKfDnFQQH+PSL+3PB4wstpxJfTHBTgVoSXU4kvp0oaYOHldOLL6ZIFWHjpQnzpIkmAhZduxJduOgdYeOlKfOmqU4CFl+7El+5ODrDwkoL4ksJJARZe0hBf0jg4wMJLKuJLKgcFWHhJR3xJp3GAhZeUxJeUGgVYeElLfElrZ4CFl9TEl9Q2Blh4SU98SW9lgIWXEsSXEq4MsPBShvhSxgsBFl5KEV9KeSbAwks54ks53wRYeAHOcnN3/+PN3f0vvc8DAAAAAAAAAAAAAAAAAAAAAMjn/wG3Y9fqkakvlwAAAABJRU5ErkJggg==;" vertex="1" parent="1">
          <mxGeometry x="1456.1000000000001" y="160" width="45" height="45" as="geometry" />
        </mxCell>
        <mxCell id="u6hc1uQPACvz0U9A136R-85" value="Virtual coud integrations" style="text;html=1;align=center;verticalAlign=middle;whiteSpace=wrap;rounded=0;" vertex="1" parent="1">
          <mxGeometry x="1530" y="152.5" width="116.08" height="60" as="geometry" />
        </mxCell>
        <mxCell id="u6hc1uQPACvz0U9A136R-86" value="Primary" style="text;html=1;whiteSpace=wrap;strokeColor=none;fillColor=none;align=center;verticalAlign=middle;rounded=0;" vertex="1" parent="1">
          <mxGeometry x="1350" y="60" width="60" height="30" as="geometry" />
        </mxCell>
        <mxCell id="u6hc1uQPACvz0U9A136R-89" value="Secondary" style="text;html=1;whiteSpace=wrap;strokeColor=none;fillColor=none;align=center;verticalAlign=middle;rounded=0;" vertex="1" parent="1">
          <mxGeometry x="1350" y="160" width="60" height="30" as="geometry" />
        </mxCell>
        <mxCell id="u6hc1uQPACvz0U9A136R-90" value="&lt;h1&gt;UAT / PROD&lt;/h1&gt;" style="text;html=1;whiteSpace=wrap;strokeColor=none;fillColor=none;align=left;verticalAlign=middle;rounded=0;" vertex="1" parent="1">
          <mxGeometry x="160" y="80" width="160" height="70" as="geometry" />
        </mxCell>
        <mxCell id="u6hc1uQPACvz0U9A136R-92" value="&lt;h1&gt;SIT / QA&lt;/h1&gt;" style="text;html=1;whiteSpace=wrap;strokeColor=none;fillColor=none;align=left;verticalAlign=middle;rounded=0;" vertex="1" parent="1">
          <mxGeometry x="920" y="80" width="160" height="70" as="geometry" />
        </mxCell>
        <mxCell id="u6hc1uQPACvz0U9A136R-93" value="&lt;h1&gt;LOCAL / DEV&lt;/h1&gt;" style="text;html=1;whiteSpace=wrap;strokeColor=none;fillColor=none;align=left;verticalAlign=middle;rounded=0;" vertex="1" parent="1">
          <mxGeometry x="160" y="680" width="160" height="70" as="geometry" />
        </mxCell>
        <mxCell id="u6hc1uQPACvz0U9A136R-94" value="" style="shape=image;html=1;verticalAlign=top;verticalLabelPosition=bottom;labelBackgroundColor=#ffffff;imageAspect=0;aspect=fixed;image=https://icons.diagrams.net/icon-cache1/Evil_Icons_User_Interface-2617/download-575.svg;imageBackground=none;" vertex="1" parent="1">
          <mxGeometry x="1447.42" y="88.5" width="64" height="64" as="geometry" />
        </mxCell>
      </root>
    </mxGraphModel>
  </diagram>
</mxfile>
